<?xml version="1.0" encoding="UTF-8"?>
<svg id="Layer_1" data-name="Layer 1" xmlns="http://www.w3.org/2000/svg" viewBox="0 0 1465.98 681.39">
  <defs>
    <style>
      .cls-1 {
        font-size: 15.38px;
      }

      .cls-1, .cls-2, .cls-3, .cls-4, .cls-5, .cls-6, .cls-7, .cls-8, .cls-9, .cls-10 {
        font-family: Avenir-Light, Avenir;
        font-weight: 300;
      }

      .cls-1, .cls-6, .cls-11, .cls-12 {
        fill: #231f20;
      }

      .cls-13 {
        letter-spacing: 0em;
      }

      .cls-2 {
        font-size: 15.86px;
      }

      .cls-2, .cls-14, .cls-8, .cls-15, .cls-10 {
        fill: #263b96;
      }

      .cls-16 {
        letter-spacing: 0em;
      }

      .cls-17 {
        fill: #040305;
      }

      .cls-18 {
        fill: #fff;
      }

      .cls-19 {
        fill: #9b2b29;
      }

      .cls-20 {
        fill: #922726;
      }

      .cls-21 {
        fill: #c7302c;
      }

      .cls-22 {
        fill: #7253a2;
      }

      .cls-23 {
        fill: #621c1d;
      }

      .cls-24 {
        letter-spacing: -.02em;
      }

      .cls-25 {
        letter-spacing: -.02em;
      }

      .cls-26 {
        stroke: #35ace3;
      }

      .cls-26, .cls-27, .cls-28, .cls-29, .cls-30, .cls-31, .cls-32, .cls-33 {
        stroke-width: 1.71px;
      }

      .cls-26, .cls-27, .cls-28, .cls-29, .cls-30, .cls-31, .cls-32, .cls-33, .cls-34, .cls-35 {
        fill: none;
        stroke-miterlimit: 10;
      }

      .cls-27 {
        stroke: #231f20;
      }

      .cls-28, .cls-34 {
        stroke: #040305;
      }

      .cls-29 {
        stroke: #b4842d;
      }

      .cls-30 {
        stroke: #45b649;
      }

      .cls-31 {
        stroke: #db1f26;
      }

      .cls-32 {
        stroke: #a94098;
      }

      .cls-33, .cls-35 {
        stroke: #263b96;
      }

      .cls-14 {
        font-size: 20.08px;
      }

      .cls-14, .cls-15, .cls-11, .cls-36, .cls-12, .cls-37, .cls-38, .cls-39, .cls-40, .cls-41 {
        font-family: Avenir-Medium, Avenir;
        font-weight: 500;
      }

      .cls-3 {
        fill: #a94098;
      }

      .cls-3, .cls-4, .cls-5, .cls-6, .cls-7, .cls-8, .cls-9 {
        font-size: 20.51px;
      }

      .cls-4, .cls-41 {
        fill: #db1f26;
      }

      .cls-5 {
        fill: #b4842d;
      }

      .cls-7 {
        fill: #35ace3;
      }

      .cls-9 {
        fill: #45b649;
      }

      .cls-15, .cls-11 {
        font-size: 15.72px;
      }

      .cls-42 {
        fill: #010101;
        fill-rule: evenodd;
      }

      .cls-36 {
        fill: #2e3192;
      }

      .cls-36, .cls-12, .cls-37, .cls-38, .cls-39, .cls-40, .cls-41 {
        font-size: 16.24px;
      }

      .cls-37 {
        fill: #27aae1;
      }

      .cls-38 {
        fill: #39b54a;
      }

      .cls-39 {
        fill: #d19c2a;
      }

      .cls-40 {
        fill: #92278f;
      }

      .cls-34, .cls-35 {
        stroke-width: 1.32px;
      }

      .cls-10 {
        font-size: 12.65px;
      }
    </style>
  </defs>
  <path class="cls-17" d="M318.41,126.84h-28.54v-4.41h28.54v4.41Zm0,2.87h-28.54v4.42h28.54v-4.42Zm-.02-20h-28.5v9.71h28.5v-9.71Zm9.12-10.44v104.1c0,1.56-1.28,2.83-2.84,2.83h-41.06c-1.57,0-2.84-1.27-2.84-2.84V99.28c0-1.56,1.27-2.84,2.84-2.84h41.06c1.57,0,2.84,1.28,2.84,2.84Zm-5.68,2.83h-35.39v98.43h35.39V102.1Zm-3.43,34.9h-28.54v4.4h28.54v-4.4Zm-4.64,32.85c0,5.08-4.1,9.17-9.16,9.17s-9.17-4.1-9.17-9.17,4.11-9.17,9.17-9.17c5.06,0,9.16,4.11,9.16,9.17Zm-3.31,0c0-3.23-2.62-5.86-5.86-5.86s-5.86,2.63-5.86,5.86,2.62,5.85,5.86,5.85,5.86-2.62,5.86-5.85Zm-37.48-53.44v59c0,3.56-2.86,6.44-6.38,6.44h-31.88s-1.81,12.88,9.66,12.88v6.44h-38.65v-6.44c11.05,0,9.66-12.88,9.66-12.88h-31.86c-3.53,0-6.4-2.88-6.4-6.44v-59.01c0-3.56,2.87-6.42,6.4-6.42h83.05c3.53,0,6.39,2.87,6.39,6.42Zm-41.96,57.57c0-3.05-2.47-5.52-5.52-5.52s-5.53,2.47-5.53,5.52,2.47,5.53,5.53,5.53c3.05,0,5.52-2.48,5.52-5.53Zm35.12-57.16h-82.15v49.75h82.15v-49.75Zm-40.59,53.7c-1.9,0-3.43,1.54-3.43,3.43s1.54,3.43,3.43,3.43,3.43-1.54,3.43-3.43-1.53-3.43-3.43-3.43Z"/>
  <rect class="cls-33" x="149.51" y="219.44" width="178" height="99.11" rx="20.51" ry="20.51"/>
  <rect class="cls-35" x="71.05" y="433.03" width="106.68" height="99.11" rx="15.87" ry="15.87"/>
  <rect class="cls-35" x="195.72" y="433.03" width="106.68" height="99.11" rx="15.87" ry="15.87"/>
  <rect class="cls-35" x="320.38" y="433.03" width="106.68" height="99.11" rx="15.87" ry="15.87"/>
  <rect class="cls-34" x="580.74" y="312.57" width="106.68" height="99.11" rx="15.87" ry="15.87"/>
  <path class="cls-22" d="M922.66,530.12c4.7-.49,8.27-4.54,8.11-9.41-.16-4.87-4.22-8.76-9.08-8.76h-.32c-5.03,.16-8.92,4.38-8.76,9.41,.16,2.43,1.14,4.54,2.59,6-5.51,10.87-13.95,18.81-26.6,25.46-8.6,4.54-17.52,6.16-26.43,5.03-7.3-.97-12.97-4.22-16.54-9.57-5.19-7.95-5.68-16.54-1.3-25.14,3.08-6.16,7.95-10.7,11.03-12.98-.65-2.11-1.62-5.68-2.11-8.27-23.52,17.03-21.08,40.06-13.95,50.93,5.35,8.11,16.22,13.14,28.22,13.14,3.24,0,6.49-.32,9.73-1.14,20.76-4.05,36.49-16.38,45.41-34.71h0Zm28.54-20.11c-12.33-14.43-30.49-22.38-51.25-22.38h-2.59c-1.46-2.92-4.54-4.87-7.95-4.87h-.32c-5.03,.16-8.92,4.38-8.76,9.41,.16,4.87,4.22,8.76,9.08,8.76h.32c3.57-.16,6.65-2.43,7.95-5.51h2.92c12.33,0,24,3.57,34.54,10.54,8.11,5.35,13.95,12.33,17.19,20.76,2.76,6.81,2.59,13.46-.32,19.14-4.54,8.6-12.16,13.3-22.22,13.3-6.49,0-12.65-1.95-15.89-3.41-1.78,1.62-5.03,4.22-7.3,5.84,6.97,3.24,14.11,5.03,20.92,5.03,15.57,0,27.08-8.6,31.46-17.19,4.7-9.41,4.38-25.63-7.78-39.41h0Zm-82.39,22.87c.16,4.87,4.22,8.76,9.08,8.76h.32c5.03-.16,8.92-4.38,8.76-9.41-.16-4.87-4.22-8.76-9.08-8.76h-.32c-.32,0-.81,0-1.14,.16-6.65-11.03-9.41-23.03-8.43-36,.65-9.73,3.89-18.16,9.57-25.14,4.7-6,13.78-8.92,19.95-9.08,17.19-.32,24.49,21.08,24.98,29.68,2.11,.49,5.68,1.62,8.11,2.43-1.95-26.27-18.16-39.9-33.73-39.9-14.6,0-28.06,10.54-33.41,26.11-7.46,20.76-2.59,40.71,6.49,56.44-.81,1.14-1.3,2.92-1.14,4.7h0Z"/>
  <path class="cls-22" d="M640,349.65c1.3-.13,2.28-1.25,2.24-2.6-.04-1.34-1.16-2.42-2.51-2.42h-.09c-1.39,.04-2.46,1.21-2.42,2.6,.04,.67,.31,1.25,.72,1.66-1.52,3-3.85,5.2-7.34,7.03-2.37,1.25-4.84,1.7-7.3,1.39-2.02-.27-3.58-1.16-4.57-2.64-1.43-2.19-1.57-4.57-.36-6.94,.85-1.7,2.19-2.96,3.05-3.58-.18-.58-.45-1.57-.58-2.28-6.49,4.7-5.82,11.06-3.85,14.06,1.48,2.24,4.48,3.63,7.79,3.63,.9,0,1.79-.09,2.69-.31,5.73-1.12,10.08-4.52,12.54-9.58h0Zm7.88-5.55c-3.4-3.99-8.42-6.18-14.15-6.18h-.72c-.4-.81-1.25-1.34-2.19-1.34h-.09c-1.39,.04-2.46,1.21-2.42,2.6,.04,1.34,1.16,2.42,2.51,2.42h.09c.99-.04,1.84-.67,2.19-1.52h.81c3.4,0,6.63,.99,9.54,2.91,2.24,1.48,3.85,3.4,4.75,5.73,.76,1.88,.72,3.72-.09,5.29-1.25,2.37-3.36,3.67-6.14,3.67-1.79,0-3.49-.54-4.39-.94-.49,.45-1.39,1.16-2.02,1.61,1.93,.9,3.9,1.39,5.78,1.39,4.3,0,7.48-2.37,8.69-4.75,1.3-2.6,1.21-7.08-2.15-10.88h0Zm-22.75,6.31c.04,1.34,1.16,2.42,2.51,2.42h.09c1.39-.04,2.46-1.21,2.42-2.6-.04-1.34-1.16-2.42-2.51-2.42h-.09c-.09,0-.22,0-.31,.04-1.84-3.05-2.6-6.36-2.33-9.94,.18-2.69,1.07-5.02,2.64-6.94,1.3-1.66,3.81-2.46,5.51-2.51,4.75-.09,6.76,5.82,6.9,8.2,.58,.13,1.57,.45,2.24,.67-.54-7.26-5.02-11.02-9.32-11.02-4.03,0-7.75,2.91-9.23,7.21-2.06,5.73-.72,11.24,1.79,15.59-.22,.31-.36,.81-.31,1.3h0Z"/>
  <path class="cls-42" d="M851.42,200.22h-37.76c-1.19,0-2.16-.97-2.16-2.16,0,0,0,0,0-.01v-11.72c0-1.19,.97-2.16,2.16-2.16h37.76c1.19,0,2.16,.97,2.16,2.16h0v11.72c0,1.19-.97,2.16-2.16,2.16h0Zm-11.48-48.9h-3.44v-8.85h3.44s0,8.85,0,8.85Zm10.2,0h-3.44v-8.85h3.44v8.85Zm-32.79,.35c-2.65,0-4.8-2.15-4.8-4.8,0-2.65,2.15-4.8,4.8-4.8s4.8,2.15,4.8,4.8c0,0,0,0,0,.01,0,2.64-2.14,4.79-4.79,4.79,0,0,0,0-.01,0Zm-41.46,89.87h0c.03,.96,.6,1.81,1.47,2.21l24.99,12.91c.35,.19,.74,.28,1.14,.28h.15l57.94,.18c1.33-.01,2.4-1.09,2.4-2.42h0v-122.79h0c0-1.33-1.07-2.4-2.4-2.41h-58.16l-26.24,13.5c-.8,.42-1.29,1.25-1.29,2.15h0v96.39Zm4.84-94.81l20.35-10.77v114.71l-20.36-10.64v-93.3h.01Zm25.18-12.4h53.26v117.98l-53.26-.19s0-117.79,0-117.79Zm45.51,43.23h-37.76c-1.19,0-2.16-.97-2.16-2.16v-11.73c0-1.19,.97-2.16,2.16-2.16h37.76c1.19,0,2.16,.97,2.16,2.16h0v11.72c0,1.19-.97,2.17-2.16,2.17Zm-34.27-6.08c-1.08,0-1.95-.87-1.95-1.95,0-1.08,.87-1.95,1.95-1.95,1.08,0,1.95,.87,1.95,1.95s-.87,1.95-1.95,1.95h0Zm16.42,1.25h-2.47v-6.39h2.46v6.39h.01Zm7.33,0h-2.47v-6.39h2.46v6.39h.01Zm7.33,0h-2.47v-6.39h2.46v6.39h.01Zm3.2,72.82h-37.78c-1.19,0-2.16-.97-2.16-2.16h0v-11.73c0-1.19,.97-2.15,2.16-2.16h37.76c1.19,0,2.16,.97,2.16,2.16h0v11.73c0,1.19-.97,2.16-2.16,2.16h.01Zm-34.27-6.07c-1.08,.02-1.98-.85-1.99-1.93s.85-1.98,1.93-1.99,1.98,.85,1.99,1.93c0,.01,0,.02,0,.03,0,1.08-.87,1.95-1.95,1.95h.02Zm16.42,1.25h-2.48v-6.39h2.46v6.39h.02Zm7.33,0h-2.48v-6.39h2.46v6.39h.02Zm7.33,0h-2.48v-6.39h2.46v6.39h.02Zm3.2-17.83h-37.79c-1.19,0-2.16-.97-2.16-2.16h0v-11.73c0-1.19,.97-2.15,2.16-2.16h37.76c1.19,0,2.16,.97,2.16,2.16h0v11.73c0,1.19-.97,2.16-2.16,2.16h.02Zm-34.27-6.07c-1.08,0-1.97-.87-1.97-1.95,0-1.08,.87-1.97,1.95-1.97s1.97,.87,1.97,1.95c0,0,0,0,0,.01,0,1.08-.86,1.96-1.94,1.96,0,0,0,0-.01,0Zm16.42,1.24h-2.49v-6.39h2.46v6.39h.03Zm7.33,0h-2.49v-6.39h2.46v6.39h.03Zm7.33,0h-2.49v-6.39h2.46v6.39h.03Zm-31.09-23.89c-1.08,0-1.97-.87-1.97-1.95,0-1.08,.87-1.97,1.95-1.97,1.08,0,1.97,.87,1.97,1.95,0,0,0,0,0,.01,0,1.08-.87,1.96-1.95,1.96Zm16.42,1.24h-2.49v-6.4h2.46v6.39h.03Zm7.33,.01h-2.49v-6.4h2.46v6.39h.03Zm7.33,.01h-2.49v-6.4h2.46v6.39h.03Z"/>
  <path class="cls-20" d="M1037.34,125.05c-4.67,2.43-28.87,12.38-34.02,15.07-5.15,2.69-8.01,2.66-12.08,.71-4.07-1.95-29.82-12.35-34.46-14.56-2.32-1.11-3.54-2.04-3.54-2.93v-8.85s33.52-7.3,38.94-9.24c5.41-1.94,7.29-2.01,11.89-.32,4.61,1.69,32.15,6.66,36.7,8.32v8.72c0,.87-1.05,1.83-3.43,3.07"/>
  <path class="cls-21" d="M1037.34,116.25c-4.67,2.43-28.87,12.38-34.02,15.07-5.15,2.69-8.01,2.66-12.08,.71-4.07-1.94-29.82-12.35-34.46-14.56-4.64-2.22-4.74-3.74-.18-5.53,4.56-1.78,30.16-11.83,35.58-13.77,5.41-1.94,7.29-2.01,11.89-.32,4.61,1.69,28.66,11.26,33.21,12.93,4.55,1.67,4.73,3.04,.06,5.48"/>
  <path class="cls-20" d="M1037.34,110.73c-4.67,2.44-28.87,12.38-34.02,15.07-5.15,2.68-8.01,2.66-12.08,.71-4.07-1.94-29.82-12.35-34.46-14.56-2.32-1.11-3.54-2.04-3.54-2.93v-8.85s33.52-7.3,38.94-9.24c5.41-1.94,7.29-2.01,11.89-.32,4.61,1.69,32.15,6.65,36.7,8.32v8.72c0,.87-1.05,1.83-3.43,3.07"/>
  <path class="cls-21" d="M1037.34,101.94c-4.67,2.43-28.87,12.38-34.02,15.07-5.15,2.69-8.01,2.66-12.08,.71-4.07-1.94-29.82-12.35-34.46-14.56-4.64-2.22-4.74-3.74-.18-5.53,4.56-1.78,30.16-11.83,35.58-13.77,5.41-1.94,7.29-2.01,11.89-.32,4.61,1.69,28.66,11.26,33.21,12.93,4.55,1.67,4.73,3.04,.06,5.48"/>
  <path class="cls-20" d="M1037.34,95.89c-4.67,2.43-28.87,12.38-34.02,15.07-5.15,2.69-8.01,2.66-12.08,.71-4.07-1.94-29.82-12.35-34.46-14.56-2.32-1.11-3.54-2.04-3.54-2.93v-8.85s33.52-7.3,38.94-9.24c5.41-1.94,7.29-2.01,11.89-.32,4.61,1.69,32.15,6.65,36.7,8.32v8.72c0,.87-1.05,1.83-3.43,3.07"/>
  <path class="cls-21" d="M1037.34,87.09c-4.67,2.43-28.87,12.38-34.02,15.07-5.15,2.69-8.01,2.66-12.08,.71-4.07-1.95-29.82-12.35-34.46-14.56-4.64-2.22-4.74-3.74-.18-5.53,4.56-1.78,30.16-11.83,35.58-13.77,5.41-1.94,7.29-2.01,11.89-.32,4.61,1.69,28.66,11.26,33.21,12.93,4.55,1.67,4.73,3.04,.06,5.48"/>
  <path class="cls-18" d="M1007.7,78.48l-7.53,.78-1.68,4.05-2.72-4.52-8.69-.78,6.48-2.34-1.95-3.59,6.07,2.37,5.72-1.87-1.55,3.71,5.84,2.19m-9.66,19.67l-14.04-5.83,20.12-3.09-6.08,8.91m-19.47-17.41c5.94,0,10.76,1.87,10.76,4.17s-4.82,4.17-10.76,4.17-10.76-1.87-10.76-4.17,4.82-4.17,10.76-4.17"/>
  <path class="cls-23" d="M1016.6,79.59l11.91,4.71-11.9,4.7v-9.41"/>
  <path class="cls-19" d="M1003.42,84.8l13.18-5.21v9.41s-1.28,.51-1.28,.51l-11.9-4.7"/>
  <path class="cls-20" d="M944.67,72.04c-2.09,1.09-12.92,5.54-15.23,6.75-2.31,1.2-3.59,1.19-5.41,.32-1.82-.87-13.35-5.53-15.42-6.52-1.04-.5-1.58-.91-1.58-1.31v-3.96s15.01-3.27,17.43-4.14c2.42-.87,3.26-.9,5.32-.15,2.06,.76,14.39,2.98,16.43,3.73v3.9c0,.39-.47,.82-1.54,1.38"/>
  <path class="cls-21" d="M944.67,68.1c-2.09,1.09-12.92,5.54-15.23,6.74-2.31,1.2-3.59,1.19-5.41,.32-1.82-.87-13.35-5.53-15.42-6.52-2.08-.99-2.12-1.68-.08-2.47,2.04-.8,13.5-5.3,15.92-6.17,2.42-.87,3.26-.9,5.32-.15,2.06,.76,12.83,5.04,14.87,5.79,2.04,.75,2.12,1.36,.03,2.45"/>
  <path class="cls-20" d="M944.67,65.63c-2.09,1.09-12.92,5.54-15.23,6.75-2.31,1.2-3.59,1.19-5.41,.32-1.82-.87-13.35-5.53-15.42-6.52-1.04-.5-1.58-.91-1.58-1.31v-3.96s15.01-3.27,17.43-4.14c2.42-.87,3.26-.9,5.32-.15,2.06,.76,14.39,2.98,16.43,3.73v3.9c0,.39-.47,.82-1.54,1.38"/>
  <path class="cls-21" d="M944.67,61.7c-2.09,1.09-12.92,5.54-15.23,6.75-2.31,1.2-3.59,1.19-5.41,.32-1.82-.87-13.35-5.53-15.42-6.52-2.08-.99-2.12-1.68-.08-2.47,2.04-.8,13.5-5.3,15.92-6.16,2.42-.87,3.26-.9,5.32-.15,2.06,.76,12.83,5.04,14.87,5.79,2.04,.75,2.12,1.36,.03,2.45"/>
  <path class="cls-20" d="M944.67,58.99c-2.09,1.09-12.92,5.54-15.23,6.75-2.31,1.2-3.59,1.19-5.41,.32-1.82-.87-13.35-5.53-15.42-6.52-1.04-.5-1.58-.91-1.58-1.31v-3.96s15.01-3.27,17.43-4.14c2.42-.87,3.26-.9,5.32-.15,2.06,.76,14.39,2.98,16.43,3.73v3.9c0,.39-.47,.82-1.54,1.38"/>
  <path class="cls-21" d="M944.67,55.05c-2.09,1.09-12.92,5.54-15.23,6.75-2.31,1.2-3.59,1.19-5.41,.32-1.82-.87-13.35-5.53-15.42-6.52-2.08-.99-2.12-1.68-.08-2.47,2.04-.8,13.5-5.3,15.92-6.16,2.42-.87,3.26-.9,5.32-.15,2.06,.76,12.83,5.04,14.87,5.79,2.04,.75,2.12,1.36,.03,2.45"/>
  <path class="cls-18" d="M931.4,51.2l-3.37,.35-.75,1.81-1.22-2.02-3.89-.35,2.9-1.05-.87-1.61,2.72,1.06,2.56-.84-.69,1.66,2.61,.98m-4.32,8.8l-6.29-2.61,9.01-1.38-2.72,3.99m-8.72-7.79c2.66,0,4.81,.84,4.81,1.87s-2.16,1.87-4.81,1.87-4.81-.84-4.81-1.87,2.16-1.87,4.81-1.87"/>
  <path class="cls-23" d="M935.38,51.69l5.33,2.11-5.33,2.1v-4.21"/>
  <path class="cls-19" d="M929.48,54.03l5.9-2.33v4.21s-.57,.23-.57,.23l-5.32-2.1"/>
  <path class="cls-20" d="M1037.56,176.51c-2.09,1.09-12.92,5.54-15.23,6.75-2.31,1.2-3.59,1.19-5.41,.32-1.82-.87-13.35-5.53-15.42-6.52-1.04-.5-1.58-.91-1.58-1.31v-3.96s15.01-3.27,17.43-4.14c2.42-.87,3.26-.9,5.32-.15,2.06,.76,14.39,2.98,16.43,3.73v3.9c0,.39-.47,.82-1.54,1.38"/>
  <path class="cls-21" d="M1037.56,172.57c-2.09,1.09-12.92,5.54-15.23,6.74-2.31,1.2-3.59,1.19-5.41,.32-1.82-.87-13.35-5.53-15.42-6.52-2.08-.99-2.12-1.68-.08-2.47,2.04-.8,13.5-5.3,15.92-6.17,2.42-.87,3.26-.9,5.32-.15,2.06,.76,12.83,5.04,14.87,5.79,2.04,.75,2.12,1.36,.03,2.45"/>
  <path class="cls-20" d="M1037.56,170.1c-2.09,1.09-12.92,5.54-15.23,6.75-2.31,1.2-3.59,1.19-5.41,.32-1.82-.87-13.35-5.53-15.42-6.52-1.04-.5-1.58-.91-1.58-1.31v-3.96s15.01-3.27,17.43-4.14c2.42-.87,3.26-.9,5.32-.15,2.06,.76,14.39,2.98,16.43,3.73v3.9c0,.39-.47,.82-1.54,1.38"/>
  <path class="cls-21" d="M1037.56,166.17c-2.09,1.09-12.92,5.54-15.23,6.75-2.31,1.2-3.59,1.19-5.41,.32-1.82-.87-13.35-5.53-15.42-6.52-2.08-.99-2.12-1.68-.08-2.47,2.04-.8,13.5-5.3,15.92-6.16,2.42-.87,3.26-.9,5.32-.15,2.06,.76,12.83,5.04,14.87,5.79,2.04,.75,2.12,1.36,.03,2.45"/>
  <path class="cls-20" d="M1037.56,163.46c-2.09,1.09-12.92,5.54-15.23,6.75-2.31,1.2-3.59,1.19-5.41,.32-1.82-.87-13.35-5.53-15.42-6.52-1.04-.5-1.58-.91-1.58-1.31v-3.96s15.01-3.27,17.43-4.14c2.42-.87,3.26-.9,5.32-.15,2.06,.76,14.39,2.98,16.43,3.73v3.9c0,.39-.47,.82-1.54,1.38"/>
  <path class="cls-21" d="M1037.56,159.52c-2.09,1.09-12.92,5.54-15.23,6.75-2.31,1.2-3.59,1.19-5.41,.32-1.82-.87-13.35-5.53-15.42-6.52-2.08-.99-2.12-1.68-.08-2.47,2.04-.8,13.5-5.3,15.92-6.16,2.42-.87,3.26-.9,5.32-.15,2.06,.76,12.83,5.04,14.87,5.79,2.04,.75,2.12,1.36,.03,2.45"/>
  <path class="cls-18" d="M1024.3,155.67l-3.37,.35-.75,1.81-1.22-2.02-3.89-.35,2.9-1.05-.87-1.61,2.72,1.06,2.56-.84-.69,1.66,2.61,.98m-4.32,8.8l-6.29-2.61,9.01-1.38-2.72,3.99m-8.72-7.79c2.66,0,4.81,.84,4.81,1.87s-2.16,1.87-4.81,1.87-4.81-.84-4.81-1.87,2.16-1.87,4.81-1.87"/>
  <path class="cls-23" d="M1028.28,156.16l5.33,2.11-5.33,2.1v-4.21"/>
  <path class="cls-19" d="M1022.38,158.5l5.9-2.33v4.21s-.57,.23-.57,.23l-5.32-2.1"/>
  <text class="cls-14" transform="translate(158.73 252.28)"><tspan x="0" y="0">Page Component</tspan></text>
  <text class="cls-15" transform="translate(101.58 455.95)"><tspan x="0" y="0">Graph</tspan><tspan x="-20.11" y="18.86">Component</tspan></text>
  <text class="cls-15" transform="translate(226.78 455.95)"><tspan x="0" y="0">Graph</tspan><tspan x="-20.11" y="18.86">Component</tspan></text>
  <text class="cls-15" transform="translate(351.44 455.95)"><tspan x="0" y="0">Graph</tspan><tspan x="-20.11" y="18.86">Component</tspan></text>
  <text class="cls-11" transform="translate(587.77 379.9)"><tspan x="0" y="0">Redux Thunk</tspan></text>
  <text class="cls-2" transform="translate(190.91 276.91)"><tspan x="0" y="0" xml:space="preserve">for instance  : </tspan><tspan x="0" y="19.04">MemoryPage</tspan></text>
  <text class="cls-10" transform="translate(89.44 496.21)"><tspan x="0" y="0" xml:space="preserve">for instance  : </tspan><tspan x="0" y="15.19">evictedKeys</tspan></text>
  <text class="cls-10" transform="translate(210.97 496.21)"><tspan x="0" y="0" xml:space="preserve">for instance  : </tspan><tspan x="0" y="15.19">usedMemory</tspan></text>
  <text class="cls-10" transform="translate(336.78 496.21)"><tspan x="0" y="0" xml:space="preserve">for instance  : </tspan><tspan x="0" y="15.19">memFragRa</tspan><tspan class="cls-16" x="68.22" y="15.19">t</tspan><tspan x="72.44" y="15.19">io</tspan></text>
  <line class="cls-33" x1="177.14" y1="318.55" x2="130" y2="433.03"/>
  <line class="cls-33" x1="238.51" y1="318.55" x2="249.05" y2="433.03"/>
  <line class="cls-33" x1="307.01" y1="318.55" x2="366.22" y2="433.03"/>
  <line class="cls-26" x1="671.54" y1="312.57" x2="761.46" y2="245.54"/>
  <line class="cls-29" x1="863.98" y1="170.52" x2="944.4" y2="124.64"/>
  <line class="cls-32" x1="956.78" y1="138.23" x2="876.28" y2="187.82"/>
  <line class="cls-30" x1="790.9" y1="258.83" x2="701.82" y2="328.12"/>
  <line class="cls-28" x1="684.97" y1="404.21" x2="817.13" y2="474.81"/>
  <path class="cls-33" d="M373.72,532.14s167.18,111.86,460.64,34.47c0,0-301.36,104.91-590.57-34.47"/>
  <path class="cls-33" d="M124.39,532.14s327.31,209.25,709.96,34.47"/>
  <circle class="cls-31" cx="466.01" cy="257.11" r="18.6"/>
  <text class="cls-4" transform="translate(461.37 264.2)"><tspan x="0" y="0">1</tspan></text>
  <circle class="cls-31" cx="1091.64" cy="64.12" r="18.6"/>
  <text class="cls-4" transform="translate(1087.38 71.21)"><tspan x="0" y="0">1</tspan></text>
  <circle class="cls-29" cx="895.21" cy="119.43" r="18.6"/>
  <text class="cls-5" transform="translate(890.57 126.52)"><tspan x="0" y="0">3</tspan></text>
  <circle class="cls-29" cx="1091.64" cy="240.23" r="18.6"/>
  <text class="cls-5" transform="translate(1086.31 247.32)"><tspan x="0" y="0">3</tspan></text>
  <circle class="cls-32" cx="921.06" cy="200.22" r="18.6"/>
  <text class="cls-3" transform="translate(916.42 207.3)"><tspan x="0" y="0">4</tspan></text>
  <circle class="cls-32" cx="1091.64" cy="330.2" r="18.6"/>
  <text class="cls-3" transform="translate(1086.31 337.28)"><tspan x="0" y="0">4</tspan></text>
  <circle class="cls-30" cx="762.12" cy="326.31" r="18.6"/>
  <text class="cls-9" transform="translate(757.48 333.4)"><tspan x="0" y="0">5</tspan></text>
  <circle class="cls-30" cx="1091.64" cy="403.88" r="18.6"/>
  <text class="cls-9" transform="translate(1086.31 410.97)"><tspan x="0" y="0">5</tspan></text>
  <circle class="cls-26" cx="687.42" cy="252.3" r="18.6"/>
  <text class="cls-7" transform="translate(682.78 259.39)"><tspan x="0" y="0">2</tspan></text>
  <circle class="cls-26" cx="1091.64" cy="148.35" r="18.6"/>
  <text class="cls-7" transform="translate(1086.31 155.44)"><tspan x="0" y="0">2</tspan></text>
  <circle class="cls-27" cx="772.3" cy="398.69" r="18.6"/>
  <text class="cls-6" transform="translate(767.66 405.78)"><tspan x="0" y="0">6</tspan></text>
  <circle class="cls-27" cx="1091.64" cy="475.86" r="18.6"/>
  <text class="cls-6" transform="translate(1086.31 482.94)"><tspan x="0" y="0">6</tspan></text>
  <circle class="cls-33" cx="584.24" cy="560.24" r="18.6"/>
  <text class="cls-8" transform="translate(579.6 567.33)"><tspan x="0" y="0">7</tspan></text>
  <circle class="cls-33" cx="1091.64" cy="567.53" r="18.6"/>
  <text class="cls-8" transform="translate(1086.68 574.62)"><tspan x="0" y="0">7</tspan></text>
  <text class="cls-1" transform="translate(588.61 398.95)"><tspan x="0" y="0">fn : fetchData</tspan></text>
  <text class="cls-41" transform="translate(1121.78 56.4)"><tspan x="0" y="0">Page Component dispatch the </tspan><tspan x="0" y="19.49">fetchData function every second </tspan><tspan x="0" y="38.98">passing </tspan><tspan class="cls-25" x="60.14" y="38.98">r</tspan><tspan class="cls-13" x="65.86" y="38.98">edisName</tspan></text>
  <text class="cls-37" transform="translate(1121.78 137.09)"><tspan x="0" y="0">fetchData </tspan><tspan class="cls-24" x="76.72" y="0">r</tspan><tspan x="82.44" y="0">edux thunk make </tspan><tspan x="0" y="19.49">a call to the server asking for </tspan><tspan x="0" y="38.98">a specific data category (he</tspan><tspan class="cls-24" x="201.87" y="38.98">r</tspan><tspan class="cls-13" x="207.59" y="38.98">e memory)</tspan><tspan x="0" y="58.47">and a </tspan><tspan class="cls-24" x="44.84" y="58.47">r</tspan><tspan x="50.56" y="58.47">edis name to connect with</tspan><tspan x="0" y="77.96"> </tspan></text>
  <text class="cls-39" transform="translate(1123.49 235.58)"><tspan x="0" y="0">Server query data at </tspan><tspan class="cls-24" x="0" y="19.49">r</tspan><tspan x="5.72" y="19.49">equested </tspan><tspan class="cls-24" x="79.42" y="19.49">r</tspan><tspan class="cls-13" x="85.13" y="19.49">edis instance.</tspan></text>
  <text class="cls-40" transform="translate(1122.88 337.28)"><tspan class="cls-24" x="0" y="0">r</tspan><tspan x="5.72" y="0">edis send back data to server</tspan></text>
  <text class="cls-38" transform="translate(1121.78 400.88)"><tspan x="0" y="0">server parse the data and select only </tspan><tspan x="0" y="19.49">data needed</tspan></text>
  <text class="cls-12" transform="translate(1121.78 468.81)"><tspan class="cls-24" x="0" y="0">r</tspan><tspan x="5.72" y="0">edux thunk take the data sent back </tspan><tspan x="0" y="19.49">by the server and trigger action </tspan><tspan x="0" y="38.98">that will update datas sto</tspan><tspan class="cls-24" x="186.77" y="38.98">r</tspan><tspan class="cls-13" x="192.49" y="38.98">ed in </tspan><tspan class="cls-24" x="0" y="58.47">r</tspan><tspan x="5.72" y="58.47">edux slice</tspan></text>
  <text class="cls-36" transform="translate(1121.78 561.63)"><tspan x="0" y="0">graph is </tspan><tspan class="cls-24" x="63.45" y="0">r</tspan><tspan x="69.17" y="0">eading its data in the sto</tspan><tspan class="cls-24" x="251.75" y="0">r</tspan><tspan class="cls-13" x="257.46" y="0">e </tspan><tspan x="0" y="19.49">every time it changes</tspan></text>
  <line class="cls-31" x1="565.63" y1="330.81" x2="327.51" y2="239.94"/>
  <polyline class="cls-31" points="555.12 337.25 566.3 331.46 560.71 319.88"/>
  <polyline class="cls-28" points="806.71 480.92 817.89 475.13 812.3 463.55"/>
  <polyline class="cls-33" points="828.45 577.18 834.92 566.38 824.1 559.46"/>
  <polyline class="cls-26" points="760.9 257.73 762.12 245.21 749.37 243.6"/>
  <polyline class="cls-29" points="943.17 136.56 944.39 124.04 931.64 122.43"/>
  <polyline class="cls-32" points="876.67 175.94 875.43 188.47 888.18 190.1"/>
  <polyline class="cls-30" points="702.53 315.56 701.29 328.09 714.04 329.72"/>
</svg>