<?xml version="1.0" encoding="utf-8"?>
<!-- Generator: Adobe Illustrator 27.0.0, SVG Export Plug-In . SVG Version: 6.00 Build 0)  -->
<svg version="1.1" id="Layer_1" xmlns="http://www.w3.org/2000/svg" xmlns:xlink="http://www.w3.org/1999/xlink" x="0px" y="0px"
	 viewBox="0 0 612 792" style="enable-background:new 0 0 612 792;" xml:space="preserve">
<style type="text/css">
	.st0{fill:#4480EE;}
	.st1{fill:#FFFFFF;}
	.st2{fill:#E4F3F5;}
	.st3{fill:none;stroke:#000000;stroke-width:0.986;stroke-miterlimit:10;}
	.st4{fill:none;stroke:#000000;stroke-width:1.4984;stroke-miterlimit:10;}
	.st5{fill:none;stroke:#000000;stroke-width:0.9334;stroke-miterlimit:10;}
	.st6{fill:none;stroke:#FFFFFF;stroke-width:0.9275;stroke-linecap:round;stroke-linejoin:round;stroke-miterlimit:10;}
	.st7{fill:none;stroke:#000000;stroke-width:0.4637;stroke-miterlimit:10;}
	.st8{opacity:0.5;fill:#FFFFFF;}
	.st9{fill:#B8E1E8;}
	.st10{fill:#527ABB;}
	.st11{opacity:0.5;}
	.st12{font-family:'Avenir-Medium';}
	.st13{font-size:11.7441px;}
	.st14{fill:none;stroke:#000000;stroke-width:0.3267;stroke-linecap:round;stroke-linejoin:round;stroke-miterlimit:10;}
	.st15{fill:none;stroke:#000000;stroke-width:0.455;stroke-linecap:round;stroke-linejoin:round;stroke-miterlimit:10;}
	.st16{fill:none;stroke:#527ABB;stroke-width:2.0839;stroke-linecap:round;stroke-linejoin:round;stroke-miterlimit:10;}
	.st17{fill:none;stroke:#000000;stroke-width:0.3334;stroke-linecap:round;stroke-linejoin:round;stroke-miterlimit:10;}
	.st18{fill:none;stroke:#000000;stroke-width:0.4643;stroke-linecap:round;stroke-linejoin:round;stroke-miterlimit:10;}
	.st19{fill:none;stroke:#000000;stroke-width:1.0001;stroke-miterlimit:10;}
	.st20{fill:none;stroke:#527ABB;stroke-width:2.1263;stroke-linecap:round;stroke-linejoin:round;stroke-miterlimit:10;}
	.st21{fill:#FFFFFF;stroke:#231F20;stroke-width:0.2;stroke-miterlimit:10;}
	.st22{font-size:15.6254px;}
	.st23{fill:none;stroke:#000000;stroke-width:0.9275;stroke-miterlimit:10;}
	.st24{stroke:#000000;stroke-width:0.9275;stroke-miterlimit:10;}
	.st25{opacity:0.2;}
	.st26{fill:#E4F3F5;stroke:#000000;stroke-width:0.9334;stroke-miterlimit:10;}
	.st27{fill:#FFFFFF;stroke:#000000;stroke-width:0.986;stroke-miterlimit:10;}
	.st28{opacity:0.15;}
	.st29{fill:none;stroke:#000000;stroke-width:0.0927;stroke-miterlimit:10;}
	.st30{fill:none;stroke:#000000;stroke-width:0.4637;stroke-miterlimit:10;stroke-dasharray:0.925,1.3874;}
	.st31{fill:none;stroke:#000000;stroke-width:0.4637;stroke-miterlimit:10;stroke-dasharray:0.9251,1.3877;}
	.st32{fill:none;stroke:#000000;stroke-width:0.4637;stroke-miterlimit:10;stroke-dasharray:0.9387,1.408;}
	.st33{fill:none;stroke:#000000;stroke-width:0.4637;stroke-miterlimit:10;stroke-dasharray:0.9303,1.3955;}
	.st34{fill:none;stroke:#000000;stroke-width:0.4637;stroke-miterlimit:10;stroke-dasharray:0.9218,1.3827;}
	.st35{fill:none;stroke:#000000;stroke-width:0.4637;stroke-miterlimit:10;stroke-dasharray:0.9263,1.3895;}
	.st36{opacity:0.8;fill:#FFFFFF;}
</style>
<path d="M85.86,287.24v292.73c0,3.54,1.54,6.54,3.87,8.57l-19.36-12.27l-3.71-2.36l-0.02-0.01c-2.13-2.02-3.51-4.89-3.51-8.24
	V272.93c0-0.59,0.06-1.17,0.15-1.74c7.42,4.89,14.9,9.78,22.83,13.76C85.97,285.7,85.86,286.46,85.86,287.24z"/>
<path class="st0" d="M68.78,263.08L453.46,40.97c3.47-2,7.33-1.94,10.5-0.45l2.44,1.53l0.03,0.02l19.9,12.54
	c-3.08-1.27-6.71-1.22-10.01,0.67l-5.79,3.34L91.64,277.39c-2.85,1.64-4.79,4.42-5.43,7.57c-7.98-3.99-15.49-8.87-22.95-13.76
	C63.77,267.82,65.78,264.82,68.78,263.08z"/>
<path class="st1" d="M85.86,287.22v292.87c0,3.54,1.55,6.54,3.9,8.57l2.99,1.88c3.12,1.35,6.85,1.34,10.2-0.6l384.86-222.49
	c3.51-2.03,5.68-5.79,5.68-9.85V65.01c0-4.97-3.05-8.88-7.06-10.53c-3.08-1.27-6.72-1.22-10.01,0.67l-5.79,3.34L91.56,277.37
	C88.03,279.4,85.86,283.16,85.86,287.22z"/>
<path class="st2" d="M93.75,292.78v276.24c0,3.32,1.48,6.14,3.72,8.04l2.85,1.77c2.98,1.27,6.54,1.26,9.74-0.56L480.18,361.1
	c3.35-1.91,5.43-5.43,5.43-9.24l1.99-274.72c0-4.66-2.91-8.33-6.74-9.88c-2.94-1.19-6.41-1.15-9.56,0.63l-5.53,3.14L99.18,283.54
	C95.82,285.44,93.75,288.97,93.75,292.78z"/>
<path class="st3" d="M85.86,287.22v292.87c0,3.54,1.55,6.54,3.9,8.57l2.99,1.88c3.12,1.35,6.85,1.34,10.2-0.6l384.86-222.49
	c3.51-2.03,5.68-5.79,5.68-9.85V65.01c0-4.97-3.05-8.88-7.06-10.53c-3.08-1.27-6.72-1.22-10.01,0.67l-5.79,3.34L91.56,277.37
	C88.03,279.4,85.86,283.16,85.86,287.22z"/>
<path class="st4" d="M63.37,272.93v292.73c-0.27,3.35,1.12,6.22,3.26,8.24l0.02,0.01l3.73,2.36l19.46,12.27
	c-2.35-2.03-3.89-5.03-3.75-8.57V287.24c-0.15-4.06,2.02-7.82,5.54-9.85L470.53,58.62l5.79-3.34c3.29-1.89,6.93-1.94,10.01-0.67
	l-19.9-12.54l-0.03-0.02l-2.44-1.53c-3.17-1.49-7.03-1.55-10.5,0.45L68.78,263.08C65.27,265.12,63.1,268.87,63.37,272.93z"/>
<path class="st5" d="M93.75,292.78v276.24c0,3.32,1.48,6.14,3.72,8.04l2.85,1.77c2.98,1.27,6.54,1.26,9.74-0.56L480.18,361.1
	c3.35-1.91,5.43-5.43,5.43-9.24l1.99-274.72c0-4.66-2.91-8.33-6.74-9.88c-2.94-1.19-6.41-1.15-9.56,0.63l-5.53,3.14L99.18,283.54
	C95.82,285.44,93.75,288.97,93.75,292.78z"/>
<line class="st6" x1="73.34" y1="321.52" x2="73.34" y2="520.93"/>
<ellipse transform="matrix(0.8015 -0.5979 0.5979 0.8015 -169.0524 104.949)" class="st1" cx="73.57" cy="307.14" rx="1.27" ry="2.11"/>
<path class="st5" d="M93.59,322.61L486.32,91.2"/>
<path class="st7" d="M130.01,281.36"/>
<path class="st8" d="M227.96,282.1l-117.7,68.88c-1.17,0.68-2.13,2.51-2.13,4.07v32.83c0,1.56,0.96,2.29,2.13,1.61l117.7-68.88
	c1.17-0.68,2.13-2.51,2.13-4.07v-32.83C230.09,282.14,229.13,281.42,227.96,282.1z"/>
<ellipse transform="matrix(0.5191 -0.8547 0.8547 0.5191 -197.7745 236.3233)" cx="111.14" cy="293.93" rx="7.42" ry="4.32"/>
<ellipse transform="matrix(0.5191 -0.8547 0.8547 0.5191 -182.0428 245.7357)" class="st9" cx="127.37" cy="284.65" rx="7.42" ry="4.32"/>
<ellipse transform="matrix(0.5191 -0.8547 0.8547 0.5191 -166.0881 255.5446)" class="st10" cx="144.06" cy="275.38" rx="7.42" ry="4.32"/>
<path class="st11" d="M127.17,352.48c-4.98,2.87-9.01,9.18-9.01,14.08c0,1.56,0.42,2.85,1.21,3.74c0.25,0.28,0.8,0.11,1.23-0.38
	c0.43-0.5,0.58-1.13,0.33-1.41l0,0c-0.64-0.71-0.97-1.74-0.97-2.99c0-3.92,3.23-8.97,7.21-11.26c3.98-2.3,7.21-0.98,7.2,2.95
	c0,1.24-0.33,2.66-0.96,4.1c-0.25,0.57-0.1,1.03,0.33,1.02c0,0,0,0,0.01,0c0.43-0.01,0.98-0.47,1.23-1.04
	c2.49-5.68,1.01-10.26-3.3-10.22C130.3,351.08,128.75,351.57,127.17,352.48z M129.73,356.14l-1.4,2.17
	c-0.36,0.03-0.76,0.17-1.16,0.4c-1.49,0.86-2.7,2.75-2.7,4.22s1.21,1.96,2.7,1.1c1.49-0.86,2.7-2.75,2.7-4.22
	c0-0.39-0.09-0.73-0.27-0.98l1.4-2.17c0.35-0.55,0.36-1.11,0.01-1.26c0,0,0,0-0.01,0C130.65,355.26,130.08,355.59,129.73,356.14z
	 M127.17,362.27c-0.5,0.29-0.9,0.12-0.9-0.37s0.4-1.12,0.9-1.41c0.24-0.14,0.46-0.18,0.63-0.12l0,0l0,0
	c0.17,0.07,0.27,0.24,0.27,0.48C128.07,361.35,127.67,361.98,127.17,362.27z"/>
<text transform="matrix(1.0146 -0.5858 0 1 147.1135 352.3078)" class="st11 st12 st13">Performances</text>
<path class="st8" d="M227.96,379.89l-117.7,68.88c-1.17,0.68-2.13,2.51-2.13,4.07v32.83c0,1.56,0.96,2.29,2.13,1.61l117.7-68.88
	c1.17-0.68,2.13-2.51,2.13-4.07V381.5C230.09,379.93,229.13,379.21,227.96,379.89z"/>
<text transform="matrix(1.0146 -0.5858 0 1 147.1135 450.1955)" class="st11 st12 st13">Memory</text>
<path class="st11" d="M124.34,464.25c-0.39,0.23-0.71,0.77-0.71,1.22c0,0.45,0.32,0.63,0.71,0.4c0.39-0.23,0.71-0.77,0.71-1.22
	C125.05,464.2,124.73,464.02,124.34,464.25z M127.14,450.99c-2.78,1.61-5.56,4.31-5.56,6.4v9.57c0,2.1,2.78,1.58,5.56-0.02
	c2.78-1.61,5.56-4.31,5.56-6.4v-9.57C132.7,448.87,129.92,449.38,127.14,450.99z M131.31,461.41c0,0.57-1.59,2.51-4.17,4
	c-2.59,1.49-4.17,1.38-4.17,0.81v-2.61c1.3-0.04,2.73-0.52,4.17-1.4c1.44-0.79,2.87-1.96,4.17-3.42V461.41z M131.31,456.54
	c0,0.57-1.59,2.51-4.17,4s-4.17,1.38-4.17,0.81v-2.61c1.3-0.04,2.73-0.52,4.17-1.4c1.44-0.79,2.87-1.96,4.17-3.42V456.54z
	 M127.17,455.72c-2.63,1.52-4.25,1.41-4.25,0.83c0-0.58,1.61-2.55,4.25-4.08c2.63-1.52,4.25-1.41,4.25-0.83
	C131.42,452.22,129.8,454.2,127.17,455.72z M124.34,459.38c-0.39,0.23-0.71,0.77-0.71,1.22c0,0.45,0.32,0.63,0.71,0.4
	s0.71-0.77,0.71-1.22C125.05,459.33,124.73,459.15,124.34,459.38z"/>
<path class="st8" d="M227.96,431.29l-117.7,68.88c-1.17,0.68-2.13,2.51-2.13,4.07v32.83c0,1.56,0.96,2.29,2.13,1.61l117.7-68.88
	c1.17-0.68,2.13-2.51,2.13-4.07V432.9C230.09,431.33,229.13,430.61,227.96,431.29z"/>
<text transform="matrix(1.0146 -0.5858 0 1 147.1135 502.7424)" class="st11 st12 st13">Persistence</text>
<path class="st11" d="M122.96,507.79c0-0.85,0.58-1.88,1.31-2.35c0.3-0.19,0.56-0.44,0.68-0.77c0.28-0.77-0.1-1.17-0.6-0.88
	c-1.54,0.89-2.78,3.03-2.78,4.8v2.39c0,0.85-0.58,1.88-1.31,2.35c-0.3,0.19-0.56,0.44-0.68,0.77c-0.28,0.77,0.1,1.17,0.6,0.88
	c0.77-0.44,1.39-0.09,1.39,0.79v2.39c0,1.75,1.22,2.46,2.74,1.61c0.3-0.17,0.53-0.44,0.65-0.76c0.27-0.76-0.11-1.15-0.61-0.86
	c-0.77,0.44-1.39,0.09-1.39-0.79v-2.39c0-0.92-0.35-1.59-0.96-1.84c0.61-0.95,0.96-2.03,0.96-2.95V507.79z M134.79,505.8
	c0.04-0.5-0.29-0.68-0.73-0.44c-0.75,0.41-1.35,0.05-1.35-0.81v-2.39c0-1.75-1.22-2.46-2.74-1.61c-0.3,0.17-0.53,0.44-0.65,0.76
	c-0.27,0.76,0.11,1.15,0.61,0.86c0.77-0.44,1.39-0.09,1.39,0.79v2.39c0,0.92,0.35,1.59,0.96,1.84c-0.61,0.95-0.96,2.03-0.96,2.95
	v2.39c0,0.85-0.58,1.88-1.31,2.35c-0.3,0.19-0.56,0.44-0.68,0.77c-0.28,0.77,0.1,1.17,0.6,0.88c1.54-0.89,2.78-3.03,2.78-4.8v-2.39
	c0-0.88,0.62-1.95,1.39-2.4C134.46,506.72,134.76,506.23,134.79,505.8z"/>
<g>
	<polyline class="st14" points="243.7,286.86 244.23,285.85 244.8,351.42 349.44,289.78 	"/>
	<line class="st14" x1="244.76" y1="286.27" x2="244.28" y2="285.85"/>
	<line class="st15" x1="349.04" y1="291.61" x2="349.01" y2="288.83"/>
	<line class="st15" x1="346.25" y1="293" x2="346.23" y2="290.22"/>
	<line class="st15" x1="343.47" y1="294.85" x2="343.45" y2="292.07"/>
	<line class="st15" x1="340.22" y1="296.71" x2="340.2" y2="293.93"/>
	<line class="st15" x1="337.44" y1="298.1" x2="337.42" y2="295.32"/>
	<line class="st15" x1="334.66" y1="299.96" x2="334.64" y2="297.17"/>
	<line class="st15" x1="331.88" y1="301.35" x2="331.85" y2="298.56"/>
	<line class="st15" x1="329.09" y1="303.2" x2="329.07" y2="300.42"/>
	<line class="st15" x1="326.31" y1="305.06" x2="326.29" y2="302.27"/>
	<line class="st15" x1="323.53" y1="306.45" x2="323.51" y2="303.67"/>
	<line class="st15" x1="320.28" y1="308.3" x2="320.26" y2="305.52"/>
	<line class="st15" x1="317.5" y1="309.69" x2="317.48" y2="307.38"/>
	<line class="st15" x1="314.72" y1="311.55" x2="314.69" y2="308.77"/>
	<line class="st15" x1="311.94" y1="313.4" x2="311.91" y2="310.62"/>
	<line class="st15" x1="309.15" y1="314.8" x2="309.13" y2="312.01"/>
	<line class="st15" x1="306.37" y1="316.65" x2="306.35" y2="313.87"/>
	<line class="st15" x1="303.59" y1="318.51" x2="303.57" y2="315.72"/>
	<line class="st15" x1="300.34" y1="319.9" x2="300.32" y2="317.11"/>
	<line class="st15" x1="297.56" y1="321.75" x2="297.54" y2="318.97"/>
	<line class="st15" x1="294.78" y1="323.14" x2="294.75" y2="320.36"/>
	<line class="st15" x1="292" y1="325" x2="291.97" y2="322.22"/>
	<line class="st15" x1="289.21" y1="326.85" x2="289.19" y2="324.07"/>
	<line class="st15" x1="286.43" y1="328.24" x2="286.41" y2="325.46"/>
	<line class="st15" x1="283.65" y1="330.1" x2="283.62" y2="327.32"/>
	<line class="st15" x1="280.87" y1="331.95" x2="280.84" y2="329.17"/>
	<line class="st15" x1="277.62" y1="333.35" x2="277.6" y2="330.56"/>
	<line class="st15" x1="274.84" y1="335.2" x2="274.81" y2="332.42"/>
	<line class="st15" x1="272.05" y1="336.59" x2="272.03" y2="333.81"/>
	<line class="st15" x1="269.27" y1="338.45" x2="269.25" y2="335.66"/>
	<line class="st15" x1="266.49" y1="340.3" x2="266.47" y2="337.52"/>
	<line class="st15" x1="263.71" y1="341.69" x2="263.68" y2="338.91"/>
	<line class="st15" x1="260.93" y1="343.55" x2="260.9" y2="340.76"/>
	<line class="st15" x1="257.68" y1="344.94" x2="257.65" y2="342.16"/>
	<line class="st15" x1="254.9" y1="346.79" x2="254.87" y2="344.01"/>
	<line class="st15" x1="252.11" y1="348.65" x2="252.09" y2="345.87"/>
	<line class="st15" x1="249.33" y1="350.04" x2="249.31" y2="347.26"/>
	<line class="st15" x1="245.74" y1="347.46" x2="243.91" y2="348.54"/>
	<line class="st15" x1="245.7" y1="342.23" x2="243.86" y2="343.31"/>
	<line class="st15" x1="245.65" y1="337" x2="243.82" y2="338.08"/>
	<line class="st15" x1="245.61" y1="331.77" x2="243.77" y2="332.85"/>
	<line class="st15" x1="245.56" y1="326.55" x2="243.73" y2="327.63"/>
	<line class="st15" x1="245.51" y1="321.32" x2="243.68" y2="322.4"/>
	<line class="st15" x1="245.47" y1="316.09" x2="243.64" y2="317.17"/>
	<line class="st15" x1="245.42" y1="310.86" x2="243.59" y2="311.94"/>
	<line class="st15" x1="245.38" y1="305.63" x2="243.55" y2="306.71"/>
	<line class="st15" x1="245.33" y1="300.4" x2="243.5" y2="301.48"/>
	<line class="st15" x1="245.29" y1="295.17" x2="243.45" y2="296.25"/>
	<line class="st15" x1="245.24" y1="289.95" x2="243.41" y2="291.02"/>
	<line class="st15" x1="246.55" y1="351.89" x2="246.53" y2="349.11"/>
	<polyline class="st16" points="247.69,293.67 278.97,275.24 283.44,323.94 284.74,272.14 300.09,263.1 304.42,292.6 305.78,259.75 
		320.02,251.36 323.3,299.39 322.86,249.68 345.64,236.27 	"/>
</g>
<g>
	<polyline class="st17" points="364.25,215.99 364.8,214.96 365.38,280.53 474.53,216.23 	"/>
	<line class="st17" x1="365.38" y1="215.37" x2="364.88" y2="214.96"/>
	<line class="st18" x1="474.25" y1="217.87" x2="474.22" y2="215.09"/>
	<line class="st18" x1="471" y1="219.73" x2="470.98" y2="216.95"/>
	<line class="st18" x1="468.22" y1="221.58" x2="468.19" y2="218.8"/>
	<line class="st18" x1="464.97" y1="222.98" x2="464.95" y2="220.19"/>
	<line class="st18" x1="462.19" y1="224.83" x2="462.16" y2="222.05"/>
	<line class="st18" x1="459.41" y1="226.68" x2="459.38" y2="223.9"/>
	<line class="st18" x1="456.16" y1="228.54" x2="456.14" y2="225.76"/>
	<line class="st18" x1="453.38" y1="230.39" x2="453.35" y2="227.61"/>
	<line class="st18" x1="450.13" y1="231.79" x2="450.11" y2="229"/>
	<line class="st18" x1="447.35" y1="233.64" x2="447.32" y2="230.86"/>
	<line class="st18" x1="444.57" y1="235.5" x2="444.54" y2="232.71"/>
	<line class="st18" x1="441.32" y1="237.35" x2="441.3" y2="234.57"/>
	<line class="st18" x1="438.54" y1="238.74" x2="438.51" y2="235.96"/>
	<line class="st18" x1="435.29" y1="240.6" x2="435.27" y2="237.81"/>
	<line class="st18" x1="432.51" y1="242.45" x2="432.48" y2="239.67"/>
	<line class="st18" x1="429.73" y1="244.31" x2="429.7" y2="241.52"/>
	<line class="st18" x1="426.48" y1="246.16" x2="426.46" y2="243.38"/>
	<line class="st18" x1="423.7" y1="247.55" x2="423.67" y2="244.77"/>
	<line class="st18" x1="420.45" y1="249.41" x2="420.43" y2="246.63"/>
	<line class="st18" x1="417.67" y1="251.26" x2="417.65" y2="248.48"/>
	<line class="st18" x1="414.89" y1="253.12" x2="414.86" y2="250.34"/>
	<line class="st18" x1="411.64" y1="254.51" x2="411.62" y2="251.73"/>
	<line class="st18" x1="408.86" y1="256.36" x2="408.83" y2="253.58"/>
	<line class="st18" x1="405.61" y1="258.22" x2="405.59" y2="255.44"/>
	<line class="st18" x1="402.83" y1="260.07" x2="402.81" y2="257.29"/>
	<line class="st18" x1="399.58" y1="261.47" x2="399.56" y2="258.68"/>
	<line class="st18" x1="396.8" y1="263.32" x2="396.78" y2="260.54"/>
	<line class="st18" x1="394.02" y1="265.18" x2="393.99" y2="262.39"/>
	<line class="st18" x1="390.77" y1="267.03" x2="390.75" y2="264.25"/>
	<line class="st18" x1="387.99" y1="268.89" x2="387.97" y2="266.1"/>
	<line class="st18" x1="384.74" y1="270.28" x2="384.72" y2="267.49"/>
	<line class="st18" x1="381.96" y1="272.13" x2="381.94" y2="269.35"/>
	<line class="st18" x1="379.18" y1="273.99" x2="379.15" y2="271.2"/>
	<line class="st18" x1="375.93" y1="275.84" x2="375.91" y2="273.06"/>
	<line class="st18" x1="373.15" y1="277.23" x2="373.13" y2="274.45"/>
	<line class="st18" x1="369.9" y1="279.09" x2="369.88" y2="276.31"/>
	<line class="st18" x1="366.38" y1="276.55" x2="364.47" y2="277.68"/>
	<line class="st18" x1="366.34" y1="271.32" x2="364.42" y2="272.45"/>
	<line class="st18" x1="366.29" y1="266.09" x2="364.38" y2="267.22"/>
	<line class="st18" x1="366.24" y1="260.87" x2="364.33" y2="261.99"/>
	<line class="st18" x1="366.2" y1="255.64" x2="364.29" y2="256.76"/>
	<line class="st18" x1="366.15" y1="250.41" x2="364.24" y2="251.53"/>
	<line class="st18" x1="366.11" y1="245.18" x2="364.2" y2="246.31"/>
	<line class="st18" x1="366.06" y1="239.95" x2="364.15" y2="241.08"/>
	<line class="st18" x1="366.02" y1="234.72" x2="364.1" y2="235.85"/>
	<line class="st18" x1="365.97" y1="229.49" x2="364.06" y2="230.62"/>
	<line class="st18" x1="365.92" y1="224.26" x2="364.01" y2="225.39"/>
	<line class="st18" x1="365.88" y1="219.04" x2="363.97" y2="220.16"/>
	<line class="st18" x1="367.12" y1="280.94" x2="367.1" y2="278.16"/>
	<path class="st19" d="M368.84,269.85c0,0,27.43-18.18,40.79-45.82c13.36-27.64,36.36-33.81,52.9-66.59"/>
</g>
<g>
	<polyline class="st14" points="244.63,385.43 245.16,384.42 245.73,449.99 350.37,388.35 	"/>
	<line class="st14" x1="245.81" y1="384.84" x2="245.33" y2="384.42"/>
	<line class="st15" x1="349.96" y1="389.92" x2="349.94" y2="387.14"/>
	<line class="st15" x1="347.18" y1="391.78" x2="347.16" y2="388.99"/>
	<line class="st15" x1="344.4" y1="393.63" x2="344.37" y2="390.85"/>
	<line class="st15" x1="341.62" y1="395.02" x2="341.59" y2="392.24"/>
	<line class="st15" x1="338.83" y1="396.88" x2="338.81" y2="394.1"/>
	<line class="st15" x1="335.59" y1="398.27" x2="335.56" y2="395.49"/>
	<line class="st15" x1="332.8" y1="400.12" x2="332.78" y2="397.34"/>
	<line class="st15" x1="330.02" y1="401.98" x2="330" y2="399.2"/>
	<line class="st15" x1="327.24" y1="403.37" x2="327.22" y2="400.59"/>
	<line class="st15" x1="324.46" y1="405.22" x2="324.43" y2="402.44"/>
	<line class="st15" x1="321.68" y1="406.62" x2="321.65" y2="403.83"/>
	<line class="st15" x1="318.89" y1="408.47" x2="318.87" y2="405.69"/>
	<line class="st15" x1="315.65" y1="410.33" x2="315.62" y2="407.54"/>
	<line class="st15" x1="312.86" y1="411.72" x2="312.84" y2="408.93"/>
	<line class="st15" x1="310.08" y1="413.57" x2="310.06" y2="410.79"/>
	<line class="st15" x1="307.3" y1="415.43" x2="307.27" y2="412.64"/>
	<line class="st15" x1="304.52" y1="416.82" x2="304.49" y2="414.04"/>
	<line class="st15" x1="301.73" y1="418.67" x2="301.71" y2="415.89"/>
	<line class="st15" x1="298.95" y1="420.06" x2="298.93" y2="417.28"/>
	<line class="st15" x1="295.71" y1="421.92" x2="295.68" y2="419.14"/>
	<line class="st15" x1="292.92" y1="423.77" x2="292.9" y2="420.99"/>
	<line class="st15" x1="290.14" y1="425.17" x2="290.12" y2="422.38"/>
	<line class="st15" x1="287.36" y1="427.02" x2="287.33" y2="424.24"/>
	<line class="st15" x1="284.58" y1="428.41" x2="284.55" y2="425.63"/>
	<line class="st15" x1="281.79" y1="430.27" x2="281.77" y2="427.48"/>
	<line class="st15" x1="279.01" y1="432.12" x2="278.99" y2="429.34"/>
	<line class="st15" x1="275.76" y1="433.51" x2="275.74" y2="430.73"/>
	<line class="st15" x1="272.98" y1="435.37" x2="272.96" y2="432.59"/>
	<line class="st15" x1="270.2" y1="437.22" x2="270.18" y2="434.44"/>
	<line class="st15" x1="267.42" y1="438.61" x2="267.39" y2="435.83"/>
	<line class="st15" x1="264.64" y1="440.47" x2="264.61" y2="437.69"/>
	<line class="st15" x1="261.85" y1="441.86" x2="261.83" y2="439.08"/>
	<line class="st15" x1="259.07" y1="443.72" x2="259.05" y2="440.93"/>
	<line class="st15" x1="256.29" y1="445.57" x2="256.26" y2="442.79"/>
	<line class="st15" x1="253.04" y1="446.96" x2="253.02" y2="444.18"/>
	<line class="st15" x1="250.26" y1="448.82" x2="250.24" y2="446.03"/>
	<line class="st15" x1="246.79" y1="446.03" x2="244.96" y2="447.11"/>
	<line class="st15" x1="246.75" y1="440.81" x2="244.91" y2="441.88"/>
	<line class="st15" x1="246.7" y1="435.58" x2="244.87" y2="436.66"/>
	<line class="st15" x1="246.66" y1="430.35" x2="244.82" y2="431.43"/>
	<line class="st15" x1="246.61" y1="425.12" x2="244.78" y2="426.2"/>
	<line class="st15" x1="246.56" y1="419.89" x2="244.73" y2="420.97"/>
	<line class="st15" x1="246.52" y1="414.66" x2="244.69" y2="415.74"/>
	<line class="st15" x1="246.47" y1="409.43" x2="244.64" y2="410.51"/>
	<line class="st15" x1="246.43" y1="404.2" x2="244.6" y2="405.28"/>
	<line class="st15" x1="246.38" y1="398.98" x2="244.55" y2="400.06"/>
	<line class="st15" x1="246.34" y1="393.75" x2="244.5" y2="394.83"/>
	<line class="st15" x1="246.29" y1="388.52" x2="244.46" y2="389.6"/>
	<line class="st15" x1="247.48" y1="450.21" x2="247.45" y2="447.43"/>
</g>
<path class="st19" d="M249.96,402.12c0,0,4.64,11.42,17.19,2.39c12.56-9.02,17.01-23.94,28.35-30.62
	c11.34-6.68,4.64,18.78,17.08,10.94c12.44-7.84,14.77-30.47,27.38-38.67c12.61-8.19,9.46-3.79,9.46-3.79"/>
<g>
	<polyline class="st17" points="365.18,314.56 365.73,313.53 366.3,379.1 475.46,314.8 	"/>
	<line class="st17" x1="366.43" y1="313.94" x2="365.94" y2="313.53"/>
	<line class="st18" x1="475.17" y1="316.65" x2="475.15" y2="313.87"/>
	<line class="st18" x1="472.39" y1="318.04" x2="472.37" y2="315.26"/>
	<line class="st18" x1="469.14" y1="319.9" x2="469.12" y2="317.11"/>
	<line class="st18" x1="466.36" y1="321.75" x2="466.34" y2="318.97"/>
	<line class="st18" x1="463.12" y1="323.61" x2="463.09" y2="320.82"/>
	<line class="st18" x1="460.33" y1="325.46" x2="460.31" y2="322.68"/>
	<line class="st18" x1="457.09" y1="326.85" x2="457.06" y2="324.07"/>
	<line class="st18" x1="454.3" y1="328.71" x2="454.28" y2="325.93"/>
	<line class="st18" x1="451.52" y1="330.56" x2="451.5" y2="327.78"/>
	<line class="st18" x1="448.28" y1="332.42" x2="448.25" y2="329.64"/>
	<line class="st18" x1="445.49" y1="333.81" x2="445.47" y2="331.03"/>
	<line class="st18" x1="442.25" y1="335.66" x2="442.22" y2="332.88"/>
	<line class="st18" x1="439.47" y1="337.52" x2="439.44" y2="334.74"/>
	<line class="st18" x1="436.68" y1="339.37" x2="436.66" y2="336.59"/>
	<line class="st18" x1="433.44" y1="341.23" x2="433.41" y2="338.45"/>
	<line class="st18" x1="430.65" y1="342.62" x2="430.63" y2="339.84"/>
	<line class="st18" x1="427.41" y1="344.47" x2="427.38" y2="341.69"/>
	<line class="st18" x1="424.63" y1="346.33" x2="424.6" y2="343.55"/>
	<line class="st18" x1="421.84" y1="348.18" x2="421.82" y2="345.4"/>
	<line class="st18" x1="418.6" y1="349.58" x2="418.57" y2="346.79"/>
	<line class="st18" x1="415.81" y1="351.43" x2="415.79" y2="348.65"/>
	<line class="st18" x1="412.57" y1="353.29" x2="412.54" y2="350.5"/>
	<line class="st18" x1="409.79" y1="355.14" x2="409.76" y2="352.36"/>
	<line class="st18" x1="407" y1="356.53" x2="406.98" y2="353.75"/>
	<line class="st18" x1="403.76" y1="358.39" x2="403.73" y2="355.6"/>
	<line class="st18" x1="400.97" y1="360.24" x2="400.95" y2="357.46"/>
	<line class="st18" x1="397.73" y1="362.1" x2="397.7" y2="359.31"/>
	<line class="st18" x1="394.95" y1="363.95" x2="394.92" y2="361.17"/>
	<line class="st18" x1="392.16" y1="365.34" x2="392.14" y2="362.56"/>
	<line class="st18" x1="388.92" y1="367.2" x2="388.89" y2="364.42"/>
	<line class="st18" x1="386.13" y1="369.05" x2="386.11" y2="366.27"/>
	<line class="st18" x1="382.89" y1="370.91" x2="382.86" y2="368.13"/>
	<line class="st18" x1="380.11" y1="372.3" x2="380.08" y2="369.52"/>
	<line class="st18" x1="377.32" y1="374.15" x2="377.3" y2="371.37"/>
	<line class="st18" x1="374.08" y1="376.01" x2="374.05" y2="373.23"/>
	<line class="st18" x1="371.3" y1="377.86" x2="371.27" y2="375.08"/>
	<line class="st18" x1="367.44" y1="375.12" x2="365.53" y2="376.25"/>
	<line class="st18" x1="367.39" y1="369.89" x2="365.48" y2="371.02"/>
	<line class="st18" x1="367.35" y1="364.66" x2="365.44" y2="365.79"/>
	<line class="st18" x1="367.3" y1="359.43" x2="365.39" y2="360.56"/>
	<line class="st18" x1="367.26" y1="354.2" x2="365.35" y2="355.33"/>
	<line class="st18" x1="367.21" y1="348.98" x2="365.3" y2="350.1"/>
	<line class="st18" x1="367.17" y1="343.75" x2="365.25" y2="344.87"/>
	<line class="st18" x1="367.12" y1="338.52" x2="365.21" y2="339.64"/>
	<line class="st18" x1="367.07" y1="333.29" x2="365.16" y2="334.42"/>
	<line class="st18" x1="367.03" y1="328.06" x2="365.12" y2="329.19"/>
	<line class="st18" x1="366.98" y1="322.83" x2="365.07" y2="323.96"/>
	<line class="st18" x1="366.94" y1="317.6" x2="365.03" y2="318.73"/>
	<line class="st18" x1="368.05" y1="379.72" x2="368.02" y2="376.94"/>
</g>
<polyline class="st20" points="370.47,320.78 382.35,313.78 388.51,335.15 391.46,308.41 400.38,326.47 406.23,290.5 412.35,306.62 
	416.38,293.74 426.91,287.53 433.4,324.03 435.93,272.3 438.99,280.42 453.84,271.67 457.12,305.81 459.7,259 462.55,266.54 
	471.47,261.29 "/>
<path class="st21" d="M258.78,319.17l-156.64,91.67c-1.56,0.9-2.84,3.34-2.84,5.42v43.69c0,2.08,1.28,3.04,2.84,2.14l156.64-91.67
	c1.56-0.9,2.84-3.34,2.84-5.42v-43.69C261.62,319.23,260.34,318.26,258.78,319.17z"/>
<text transform="matrix(1.0146 -0.5858 0 1 151.151 413.4445)" class="st12 st22">Activities</text>
<path d="M116.47,429.05v9.13c0,0.08,0.05,0.19,0.13,0.23c0.79,0.39,1.73-0.78,1.73-1.66v-8.51c0-0.88-0.94-0.97-1.73,0.34
	C116.51,428.73,116.47,428.89,116.47,429.05z M121.11,415.41v19.76c0,0.08,0.05,0.19,0.13,0.23c0.79,0.39,1.73-0.78,1.73-1.66V414.6
	c0-0.88-0.94-0.97-1.73,0.34C121.15,415.08,121.11,415.25,121.11,415.41z M130.85,425.03v4.88c0,0.08,0.05,0.19,0.13,0.23
	c0.79,0.39,1.73-0.78,1.73-1.66v-4.25c0-0.88-0.94-0.97-1.73,0.34C130.88,424.7,130.85,424.86,130.85,425.03z M126.21,419.13v13.38
	c0,0.08,0.05,0.19,0.13,0.23c0.79,0.39,1.73-0.78,1.73-1.66v-12.76c0-0.88-0.94-0.97-1.73,0.34
	C126.25,418.81,126.21,418.97,126.21,419.13z"/>
<path class="st0" d="M358.54,624.4v79.02c3.14,0.4,6.35-0.01,8.58-1.3l148.91-85.97c1.68-0.97,2.5-2.27,2.5-3.63v-80.5L358.54,624.4
	z"/>
<path d="M357.79,624.77c-4.38,2.53-12.03,2.21-17.08-0.71l-20.19-11.66v67.97c0,1.64,1.2,3.38,3.55,4.73l28.57,16.5
	c1.72,0.99,3.8,1.63,5.91,1.89v-79.16L357.79,624.77z"/>
<path d="M346.55,610.8c-2.07-0.38-4.09-1.07-5.8-2.06l-20.21-11.67l-9.26-5.35l-4.2-2.43c-2.77-1.59-4.18-3.64-4.18-5.58v15.42
	c0,1.94,1.42,3.99,4.18,5.58l13.47,7.77l20.21,11.67c2.2,1.27,4.89,2.05,7.59,2.32v-15.43C347.74,610.99,347.14,610.91,346.55,610.8
	z"/>
<path class="st0" d="M533.21,508.17l-5.43,3.13l-169.97,98.14c-1.43,0.83-3.21,1.35-5.14,1.57c-1.39,0.16-2.86,0.17-4.33,0.02v15.39
	c3.5,0.34,7.01-0.17,9.48-1.6l160.73-92.8l14.66-8.46c1.98-1.14,2.95-2.67,2.95-4.27V503.9
	C536.15,505.5,535.19,507.02,533.21,508.17z"/>
<path class="st2" d="M536.06,503.89c0,1.6-0.97,3.13-2.95,4.27l-5.43,3.13l-169.99,98.15c-1.43,0.83-3.21,1.35-5.14,1.57
	c-1.96,0.23-4.08,0.15-6.12-0.23c-2.07-0.38-4.08-1.07-5.79-2.05l-20.16-11.64l-9.24-5.34l-4.19-2.42
	c-2.76-1.59-4.18-3.63-4.18-5.56c0-1.6,0.97-3.14,2.95-4.28l175.42-101.27c4.37-2.52,12.01-2.21,17.05,0.7l33.59,19.4
	C534.65,499.92,536.06,501.96,536.06,503.89z"/>
<path d="M439.07,534.06l-16.8-9.7l-3.42-1.98c-1.85-1.07-2.8-2.45-2.8-3.77v11.09c0,1.31,0.95,2.7,2.8,3.77l20.22,11.68
	c1.39,0.8,3.09,1.31,4.8,1.51v-11.09C442.16,535.37,440.46,534.87,439.07,534.06z"/>
<path d="M428.19,492.17l6.39,27.74c0.22,1.04,0.54,1.75,0.99,2.05l0.29,0.13l4.14,1.83c-0.46-0.29-0.77-1-1.01-2.05l-0.23-1.02
	l-6.16-26.72c-0.11-0.51-0.07-1.05,0.08-1.58l-4.48-1.67C428.11,491.31,428.09,491.75,428.19,492.17z"/>
<path class="st2" d="M477,461.41l-0.36-0.16c-0.33-0.08-0.71,0-1.17,0.26l-44.76,25.84c-1.06,0.61-2.21,2.06-2.51,3.51l4.48,1.67
	c0.38-1.35,1.44-2.65,2.44-3.22l43.09-24.88l1.67-0.97c0.54-0.31,0.99-0.37,1.35-0.21L477,461.41z"/>
<path class="st3" d="M483.88,496.72l-40.28,23.55c-0.41,0.23-0.75,0.32-1.02,0.24l-0.02-0.01l-0.23-0.11
	c-0.39-0.25-0.66-0.85-0.85-1.74l-0.2-0.86l-5.24-22.72c-0.34-1.53,0.96-3.4,2.14-4.08l38.86-22.73l1.42-0.82
	c0.46-0.27,0.84-0.32,1.15-0.18c0.49,0.21,0.81,0.85,0.99,1.79l5.44,23.59C486.45,494.48,485.06,496.04,483.88,496.72z"/>
<path d="M362.86,588.47l-16.03,9.25c-1.32,0.76-3.65,0.67-5.18-0.21l-15.13-8.74c-1.53-0.88-1.69-2.23-0.37-2.99l16.03-9.25
	c1.32-0.76,3.65-0.67,5.18,0.21l15.13,8.74C364.02,586.36,364.19,587.7,362.86,588.47z"/>
<path class="st23" d="M406.78,539.06l-49.74,28.72c-1.78,1.03-1.79,2.71-0.02,3.73l13.46,7.77c1.77,1.02,4.68,1.02,6.46-0.01
	l24.87-14.36l24.87-14.36c1.78-1.03,1.79-2.71,0.02-3.73l-13.46-7.77C411.47,538.02,408.56,538.03,406.78,539.06z"/>
<line class="st24" x1="416.49" y1="575.29" x2="400.15" y2="565.85"/>
<line class="st24" x1="416.51" y1="575.19" x2="416.51" y2="590.95"/>
<line class="st24" x1="405.38" y1="597.44" x2="405.38" y2="679.99"/>
<path class="st3" d="M352.55,611.01"/>
<path class="st3" d="M536.06,503.89c0,1.6-0.97,3.13-2.95,4.27l-5.43,3.13l-169.99,98.15c-1.43,0.83-3.21,1.35-5.14,1.57
	c-1.96,0.23-4.08,0.15-6.12-0.23c-2.07-0.38-4.08-1.07-5.79-2.05l-20.16-11.64l-9.24-5.34l-4.19-2.42
	c-2.76-1.59-4.18-3.63-4.18-5.56c0-1.6,0.97-3.14,2.95-4.28l175.42-101.27c4.37-2.52,12.01-2.21,17.05,0.7l33.59,19.4
	C534.65,499.92,536.06,501.96,536.06,503.89z"/>
<path class="st3" d="M518.53,531.99v80.52c0,1.36-0.82,2.66-2.5,3.63l-148.96,86c-3.71,2.15-10.19,1.88-14.48-0.6l-28.53-16.48
	c-2.34-1.35-3.54-3.08-3.54-4.73v-67.87l20.16,11.64c5.05,2.92,12.68,3.24,17.06,0.71L518.53,531.99z"/>
<path class="st3" d="M320.48,593.13"/>
<path class="st3" d="M536.15,503.87v15.4c0,1.6-0.97,3.13-2.95,4.27L518.54,532l-160.81,92.85c-4.38,2.53-12.01,2.21-17.06-0.71
	l-20.17-11.64l-13.44-7.76c-2.76-1.59-4.18-3.63-4.18-5.57v-15.39c0,1.93,1.41,3.98,4.18,5.57l4.19,2.42l9.25,5.34l20.17,11.64
	c1.71,0.99,3.72,1.67,5.79,2.05c2.05,0.38,4.16,0.46,6.12,0.23c1.93-0.22,3.71-0.74,5.15-1.57l170.05-98.18l5.43-3.13
	C535.19,507,536.15,505.47,536.15,503.87z"/>
<path class="st3" d="M536.06,503.89"/>
<path class="st3" d="M536.06,519.28"/>
<path class="st3" d="M503.23,502.04v0.36c-0.04,1.04-0.68,2.02-1.96,2.76l-4.23,2.44l-46.63,26.92c-2.93,1.7-8.09,1.48-11.48-0.47
	l-16.72-9.66l-3.41-1.97c-1.85-1.06-2.79-2.44-2.79-3.75c0-1.07,0.64-2.11,1.97-2.87l50.87-29.37c2.93-1.69,8.09-1.47,11.47,0.48
	l20.13,11.62C502.17,499.53,503.12,500.8,503.23,502.04z"/>
<g>
	<path class="st9" d="M503.23,502.4c-0.02,0.49-0.17,0.96-0.46,1.4l0.46,0.27L503.23,502.4z"/>
	<path class="st25" d="M510.97,508.61l-8.21-4.74l0.46,9.43v-0.07c-0.01,1.07-0.66,2.11-1.99,2.87l-50.19,28.98
		c3.23,1.11,7.19,1.01,9.62-0.4l46.98-27.12l4.26-2.46c1.29-0.75,1.94-1.73,1.98-2.78v-0.03
		C513.78,510.99,512.79,509.65,510.97,508.61z"/>
	<path class="st9" d="M503.22,504.14l-0.46-0.27c-0.32,0.5-0.82,0.96-1.5,1.36l-4.22,2.43l-46.5,26.84c-1.72,1-4.23,1.33-6.68,1.04
		v5.17v5.84c2.46,0.29,4.96-0.04,6.68-1.03l1.04-0.6l49.67-28.68c1.31-0.76,1.96-1.78,1.97-2.84v-0.05L503.22,504.14z"/>
</g>
<path class="st3" d="M503.23,513.3v0.06c-0.01,1.06-0.65,2.09-1.97,2.85l-50.83,29.35c-2.93,1.69-8.09,1.48-11.47-0.47l-20.12-11.62
	c-1.84-1.06-2.79-2.44-2.79-3.75v-11.04c0,1.3,0.94,2.67,2.78,3.73l3.39,1.96l16.63,9.6c3.37,1.94,8.5,2.15,11.42,0.47l46.36-26.76
	l4.2-2.43c1.27-0.74,1.91-1.71,1.95-2.75L503.23,513.3z"/>
<path class="st26" d="M486.27,497.92l-44.76,25.84c-0.48,0.27-0.88,0.37-1.2,0.28l-0.03-0.01l-0.27-0.13
	c-0.46-0.29-0.77-1-1.01-2.05l-0.23-1.02l-6.16-26.72c-0.4-1.8,1.13-4,2.52-4.8l43.09-24.88l1.67-0.97
	c0.54-0.31,0.99-0.37,1.35-0.21c0.58,0.24,0.96,1.01,1.16,2.11l6.39,27.75C489.29,495.29,487.65,497.12,486.27,497.92z"/>
<line class="st3" x1="476.64" y1="461.26" x2="476.6" y2="461.24"/>
<path class="st3" d="M481.23,463.26c-0.36-0.16-0.81-0.1-1.35,0.21l-1.67,0.97l-43.09,24.88c-1.39,0.8-2.92,3.01-2.52,4.8
	l6.16,26.72l0.23,1.02c0.23,1.05,0.55,1.76,1.01,2.05l-4.14-1.83l-0.29-0.13c-0.45-0.3-0.76-1.01-0.99-2.05l-6.39-27.74
	c-0.4-1.8,1.13-4,2.52-4.8l44.76-25.84c0.46-0.26,0.84-0.34,1.17-0.26l0.36,0.16L481.23,463.26z"/>
<path class="st27" d="M483.88,496.72l-40.28,23.55c-0.41,0.23-0.75,0.32-1.02,0.24l-0.02-0.01l-0.23-0.11
	c-0.39-0.25-0.66-0.85-0.85-1.74l-0.2-0.86l-5.24-22.72c-0.34-1.53,0.96-3.4,2.14-4.08l38.86-22.73l1.42-0.82
	c0.46-0.27,0.84-0.32,1.15-0.18c0.49,0.21,0.81,0.85,0.99,1.79l5.44,23.59C486.45,494.48,485.06,496.04,483.88,496.72z"/>
<path class="st28" d="M584.79,587.02l-33.59-19.4c-5.05-2.91-12.68-3.22-17.05-0.7l-15.61,9.01v-43.91l-148.99,86.02l14.9,74.13
	l9.11,5.26c1.71,0.98,3.72,1.67,5.79,2.05c2.05,0.38,4.16,0.46,6.12,0.23c1.93-0.22,3.71-0.74,5.14-1.57l169.99-98.15l5.43-3.13
	c1.98-1.14,2.95-2.67,2.95-4.27C588.96,590.65,587.55,588.61,584.79,587.02z"/>
<polyline class="st29" points="439.35,493.97 441.75,493.65 443.69,492.03 445.34,491.55 446.82,490.06 449.41,489.12 451.43,487.4 
	453.87,486.3 457.63,484.58 459.12,483.64 460.71,483.25 463.66,480.43 466.48,479.33 469.3,478.78 470.78,476.68 473.45,476.31 
	474.62,474.55 476.89,474.55 478.3,472.75 "/>
<polyline class="st29" points="440.59,497.68 443,497.36 444.94,495.74 446.59,495.26 448.07,493.77 450.66,492.83 452.68,491.11 
	455.12,490.01 458.88,488.29 460.37,487.35 461.96,486.96 464.91,484.14 467.73,483.04 470.55,482.49 472.03,480.39 474.7,480.02 
	475.87,478.26 478.14,478.26 479.55,476.46 "/>
<polyline class="st29" points="440.59,501.85 443,501.54 444.94,499.92 446.59,499.43 448.07,497.94 450.66,497 452.68,495.28 
	455.12,494.18 458.88,492.46 460.37,491.52 461.96,491.13 464.91,488.31 467.73,487.21 470.55,486.67 472.03,484.56 474.7,484.2 
	475.87,482.44 478.14,482.44 479.55,480.64 "/>
<polyline class="st29" points="441.56,506.03 443.97,505.71 445.9,504.09 447.55,503.6 449.04,502.11 451.62,501.18 453.65,499.45 
	456.08,498.36 459.84,496.63 461.33,495.69 462.92,495.3 465.87,492.48 468.69,491.39 471.51,490.84 473,488.74 475.67,488.37 
	476.83,486.61 479.11,486.61 480.51,484.81 "/>
<polyline class="st29" points="442.27,509.74 444.68,509.42 446.61,507.8 448.26,507.31 449.75,505.82 452.33,504.89 454.36,503.16 
	456.8,502.07 460.55,500.34 462.04,499.4 463.63,499.01 466.58,496.19 469.4,495.1 472.22,494.55 473.71,492.45 476.38,492.08 
	477.55,490.32 479.82,490.32 481.23,488.52 "/>
<polyline class="st29" points="443.18,513.45 445.59,513.13 447.53,511.51 449.17,511.02 450.66,509.53 453.24,508.6 455.27,506.87 
	457.71,505.78 461.47,504.05 462.95,503.11 464.54,502.72 467.5,499.9 470.31,498.81 473.13,498.26 474.62,496.16 477.29,495.79 
	478.46,494.03 480.73,494.03 482.14,492.23 "/>
<path class="st28" d="M518.67,393.33l-378.3,218.41c-1.77,1.02-1.54,2.82,0.5,4l20.11,11.61c2.04,1.18,5.16,1.31,6.92,0.29
	l378.3-218.41c1.77-1.02,1.54-2.82-0.5-4l-20.11-11.61C523.55,392.44,520.44,392.31,518.67,393.33z"/>
<path d="M485.41,587.46l-76.19,43.99c-0.78,0.45-1.12,2.18-0.75,3.84l0,0c0.36,1.67,1.3,2.66,2.07,2.21l76.19-43.99
	c0.78-0.45,1.12-2.18,0.75-3.84l0,0C487.12,588,486.19,587.01,485.41,587.46z"/>
<g>
	<g>
		<line class="st7" x1="338.6" y1="693.48" x2="338.2" y2="693.72"/>
		<line class="st30" x1="337.01" y1="694.42" x2="259.9" y2="739.84"/>
		<polyline class="st7" points="259.3,740.19 258.9,740.42 258.52,740.16 		"/>
		<line class="st31" x1="257.38" y1="739.37" x2="179.92" y2="685.89"/>
		<polyline class="st7" points="179.35,685.49 178.96,685.23 178.56,685.46 		"/>
		<line class="st32" x1="177.34" y1="686.15" x2="135.05" y2="710.05"/>
		<polyline class="st7" points="134.43,710.4 134.03,710.63 133.66,710.35 		"/>
		<line class="st33" x1="132.53" y1="709.53" x2="71.15" y2="664.62"/>
		<polyline class="st7" points="70.59,664.21 70.21,663.93 70.62,663.7 		"/>
		<line class="st34" x1="71.82" y1="663.02" x2="153.26" y2="616.5"/>
		<polyline class="st7" points="153.86,616.16 154.27,615.92 154.27,615.46 		"/>
		<line class="st35" x1="154.27" y1="614.07" x2="154.27" y2="561.5"/>
		<line class="st7" x1="154.27" y1="560.81" x2="154.27" y2="560.35"/>
	</g>
</g>
<path class="st36" d="M368.4,568.18l-1.86,1.08c-0.72,0.41-1.98,0.36-2.81-0.12l-0.8-0.46c-0.83-0.48-0.92-1.21-0.2-1.62l1.86-1.08
	c0.72-0.41,1.98-0.36,2.81,0.12l0.8,0.46C369.02,567.03,369.12,567.76,368.4,568.18z"/>
<path class="st36" d="M374.07,564.9l-1.86,1.08c-0.72,0.41-1.98,0.36-2.81-0.12l-0.8-0.46c-0.83-0.48-0.92-1.21-0.2-1.62l1.86-1.08
	c0.72-0.41,1.98-0.36,2.81,0.12l0.8,0.46C374.7,563.76,374.79,564.49,374.07,564.9z"/>
<path class="st36" d="M379.75,561.63l-1.86,1.08c-0.72,0.41-1.98,0.36-2.81-0.12l-0.8-0.46c-0.83-0.48-0.92-1.21-0.2-1.62l1.86-1.08
	c0.72-0.41,1.98-0.36,2.81,0.12l0.8,0.46C380.37,560.48,380.46,561.21,379.75,561.63z"/>
<path class="st36" d="M385.42,558.35l-1.86,1.08c-0.72,0.41-1.98,0.36-2.81-0.12l-0.8-0.46c-0.83-0.48-0.92-1.21-0.2-1.62l1.86-1.08
	c0.72-0.41,1.98-0.36,2.81,0.12l0.8,0.46C386.05,557.21,386.14,557.94,385.42,558.35z"/>
<path class="st36" d="M391.09,555.08l-1.86,1.08c-0.72,0.41-1.98,0.36-2.81-0.12l-0.8-0.46c-0.83-0.48-0.92-1.21-0.2-1.62l1.86-1.08
	c0.72-0.41,1.98-0.36,2.81,0.12l0.8,0.46C391.72,553.93,391.81,554.66,391.09,555.08z"/>
<path class="st36" d="M396.77,551.8l-1.86,1.08c-0.72,0.41-1.98,0.36-2.81-0.12l-0.8-0.46c-0.83-0.48-0.92-1.21-0.2-1.62l1.86-1.08
	c0.72-0.41,1.98-0.36,2.81,0.12l0.8,0.46C397.39,550.66,397.49,551.39,396.77,551.8z"/>
<path class="st36" d="M402.44,548.52l-1.86,1.08c-0.72,0.41-1.98,0.36-2.81-0.12l-0.8-0.46c-0.83-0.48-0.92-1.21-0.2-1.62l1.86-1.08
	c0.72-0.41,1.98-0.36,2.81,0.12l0.8,0.46C403.07,547.38,403.16,548.11,402.44,548.52z"/>
<path class="st36" d="M408.12,545.25l-1.86,1.08c-0.72,0.41-1.98,0.36-2.81-0.12l-0.8-0.46c-0.83-0.48-0.92-1.21-0.2-1.62l1.86-1.08
	c0.72-0.41,1.98-0.36,2.81,0.12l0.8,0.46C408.74,544.1,408.83,544.83,408.12,545.25z"/>
<path class="st36" d="M373.67,571.22l-1.86,1.08c-0.72,0.41-1.98,0.36-2.81-0.12l-0.8-0.46c-0.83-0.48-0.92-1.21-0.2-1.62l1.86-1.08
	c0.72-0.41,1.98-0.36,2.81,0.12l0.8,0.46C374.3,570.08,374.39,570.81,373.67,571.22z"/>
<path class="st36" d="M379.34,567.95l-1.86,1.08c-0.72,0.41-1.98,0.36-2.81-0.12l-0.8-0.46c-0.83-0.48-0.92-1.21-0.2-1.62l1.86-1.08
	c0.72-0.41,1.98-0.36,2.81,0.12l0.8,0.46C379.97,566.8,380.06,567.53,379.34,567.95z"/>
<path class="st36" d="M385.02,564.67l-1.86,1.08c-0.72,0.41-1.98,0.36-2.81-0.12l-0.8-0.46c-0.83-0.48-0.92-1.21-0.2-1.62l1.86-1.08
	c0.72-0.41,1.98-0.36,2.81,0.12l0.8,0.46C385.64,563.53,385.73,564.26,385.02,564.67z"/>
<path class="st36" d="M390.69,561.39l-1.86,1.08c-0.72,0.41-1.98,0.36-2.81-0.12l-0.8-0.46c-0.83-0.48-0.92-1.21-0.2-1.62l1.86-1.08
	c0.72-0.41,1.98-0.36,2.81,0.12l0.8,0.46C391.32,560.25,391.41,560.98,390.69,561.39z"/>
<path class="st36" d="M396.36,558.12l-1.86,1.08c-0.72,0.41-1.98,0.36-2.81-0.12l-0.8-0.46c-0.83-0.48-0.92-1.21-0.2-1.62l1.86-1.08
	c0.72-0.41,1.98-0.36,2.81,0.12l0.8,0.46C396.99,556.97,397.08,557.7,396.36,558.12z"/>
<path class="st36" d="M402.04,554.84l-1.86,1.08c-0.72,0.41-1.98,0.36-2.81-0.12l-0.8-0.46c-0.83-0.48-0.92-1.21-0.2-1.62l1.86-1.08
	c0.72-0.41,1.98-0.36,2.81,0.12l0.8,0.46C402.66,553.7,402.76,554.43,402.04,554.84z"/>
<path class="st36" d="M407.71,551.57l-1.86,1.08c-0.72,0.41-1.98,0.36-2.81-0.12l-0.8-0.46c-0.83-0.48-0.92-1.21-0.2-1.62l1.86-1.08
	c0.72-0.41,1.98-0.36,2.81,0.12l0.8,0.46C408.34,550.42,408.43,551.15,407.71,551.57z"/>
<path class="st36" d="M413.39,548.29l-1.86,1.08c-0.72,0.41-1.98,0.36-2.81-0.12l-0.8-0.46c-0.83-0.48-0.92-1.21-0.2-1.62l1.86-1.08
	c0.72-0.41,1.98-0.36,2.81,0.12l0.8,0.46C414.01,547.15,414.1,547.88,413.39,548.29z"/>
<path class="st36" d="M378.94,574.26l-1.86,1.08c-0.72,0.41-1.98,0.36-2.81-0.12l-0.8-0.46c-0.83-0.48-0.92-1.21-0.2-1.62l1.86-1.08
	c0.72-0.41,1.98-0.36,2.81,0.12l0.8,0.46C379.57,573.12,379.66,573.85,378.94,574.26z"/>
<path class="st36" d="M384.61,570.99l-1.86,1.08c-0.72,0.41-1.98,0.36-2.81-0.12l-0.8-0.46c-0.83-0.48-0.92-1.21-0.2-1.62l1.86-1.08
	c0.72-0.41,1.98-0.36,2.81,0.12l0.8,0.46C385.24,569.84,385.33,570.57,384.61,570.99z"/>
<path class="st36" d="M390.29,567.71l-1.86,1.08c-0.72,0.41-1.98,0.36-2.81-0.12l-0.8-0.46c-0.83-0.48-0.92-1.21-0.2-1.62l1.86-1.08
	c0.72-0.41,1.98-0.36,2.81,0.12l0.8,0.46C390.91,566.57,391,567.3,390.29,567.71z"/>
<path class="st36" d="M395.96,564.44l-1.86,1.08c-0.72,0.41-1.98,0.36-2.81-0.12l-0.8-0.46c-0.83-0.48-0.92-1.21-0.2-1.62l1.86-1.08
	c0.72-0.41,1.98-0.36,2.81,0.12l0.8,0.46C396.59,563.29,396.68,564.02,395.96,564.44z"/>
<path class="st36" d="M401.63,561.16l-1.86,1.08c-0.72,0.41-1.98,0.36-2.81-0.12l-0.8-0.46c-0.83-0.48-0.92-1.21-0.2-1.62l1.86-1.08
	c0.72-0.41,1.98-0.36,2.81,0.12l0.8,0.46C402.26,560.02,402.35,560.75,401.63,561.16z"/>
<path class="st36" d="M407.31,557.89l-1.86,1.08c-0.72,0.41-1.98,0.36-2.81-0.12l-0.8-0.46c-0.83-0.48-0.92-1.21-0.2-1.62l1.86-1.08
	c0.72-0.41,1.98-0.36,2.81,0.12l0.8,0.46C407.94,556.74,408.03,557.47,407.31,557.89z"/>
<path class="st36" d="M412.98,554.61l-1.86,1.08c-0.72,0.41-1.98,0.36-2.81-0.12l-0.8-0.46c-0.83-0.48-0.92-1.21-0.2-1.62l1.86-1.08
	c0.72-0.41,1.98-0.36,2.81,0.12l0.8,0.46C413.61,553.46,413.7,554.2,412.98,554.61z"/>
<path class="st36" d="M418.66,551.33l-1.86,1.08c-0.72,0.41-1.98,0.36-2.81-0.12l-0.8-0.46c-0.83-0.48-0.92-1.21-0.2-1.62l1.86-1.08
	c0.72-0.41,1.98-0.36,2.81,0.12l0.8,0.46C419.28,550.19,419.37,550.92,418.66,551.33z"/>
</svg>
