<?xml version="1.0" encoding="utf-8"?>
<!-- Generator: Adobe Illustrator 27.0.0, SVG Export Plug-In . SVG Version: 6.00 Build 0)  -->
<svg version="1.1" id="Layer_1" xmlns="http://www.w3.org/2000/svg" xmlns:xlink="http://www.w3.org/1999/xlink" x="0px" y="0px"
	 viewBox="0 0 612 792" style="enable-background:new 0 0 612 792;" xml:space="preserve">
<style type="text/css">
	.st0{fill:#010101;}
	.st1{fill:#5C7ABC;}
	.st2{fill:#FFFFFF;}
	.st3{fill:#E7F5F7;}
	.st4{fill:none;stroke:#010101;stroke-width:0.986;stroke-miterlimit:10;}
	.st5{fill:none;stroke:#010101;stroke-width:1.4984;stroke-miterlimit:10;}
	.st6{fill:none;stroke:#010101;stroke-width:0.9334;stroke-miterlimit:10;}
	.st7{fill:none;stroke:#FFFFFF;stroke-width:0.9275;stroke-linecap:round;stroke-linejoin:round;stroke-miterlimit:10;}
	.st8{fill:none;stroke:#010101;stroke-width:0.4637;stroke-miterlimit:10;}
	.st9{opacity:0.5;fill:#FFFFFF;}
	.st10{fill:#B9E3EA;}
	.st11{fill:#547ABD;}
	.st12{opacity:0.5;fill:#010101;}
	.st13{font-family:'Avenir-Medium';}
	.st14{font-size:11.7441px;}
	.st15{fill:none;stroke:#010101;stroke-width:0.3267;stroke-linecap:round;stroke-linejoin:round;stroke-miterlimit:10;}
	.st16{fill:none;stroke:#010101;stroke-width:0.455;stroke-linecap:round;stroke-linejoin:round;stroke-miterlimit:10;}
	.st17{fill:none;stroke:#547ABD;stroke-width:2.0839;stroke-linecap:round;stroke-linejoin:round;stroke-miterlimit:10;}
	.st18{fill:none;stroke:#010101;stroke-width:0.3334;stroke-linecap:round;stroke-linejoin:round;stroke-miterlimit:10;}
	.st19{fill:none;stroke:#010101;stroke-width:0.4643;stroke-linecap:round;stroke-linejoin:round;stroke-miterlimit:10;}
	.st20{fill:none;stroke:#010101;stroke-width:1.0001;stroke-miterlimit:10;}
	.st21{fill:none;stroke:#547ABD;stroke-width:2.1263;stroke-linecap:round;stroke-linejoin:round;stroke-miterlimit:10;}
	.st22{fill:#FFFFFF;stroke:#000000;stroke-width:0.2;stroke-miterlimit:10;}
	.st23{font-size:15.6254px;}
	.st24{fill:none;stroke:#010101;stroke-width:0.9275;stroke-miterlimit:10;}
	.st25{fill:#010101;stroke:#010101;stroke-width:0.9275;stroke-miterlimit:10;}
	.st26{opacity:0.2;fill:#010101;}
	.st27{fill:#E7F5F7;stroke:#010101;stroke-width:0.9334;stroke-miterlimit:10;}
	.st28{fill:#FFFFFF;stroke:#010101;stroke-width:0.986;stroke-miterlimit:10;}
	.st29{opacity:0.15;fill:#010101;}
	.st30{fill:none;stroke:#010101;stroke-width:0.0927;stroke-miterlimit:10;}
	.st31{fill:none;stroke:#010101;stroke-width:0.4637;stroke-miterlimit:10;stroke-dasharray:0.925,1.3874;}
	.st32{fill:none;stroke:#010101;stroke-width:0.4637;stroke-miterlimit:10;stroke-dasharray:0.9251,1.3877;}
	.st33{fill:none;stroke:#010101;stroke-width:0.4637;stroke-miterlimit:10;stroke-dasharray:0.9387,1.408;}
	.st34{fill:none;stroke:#010101;stroke-width:0.4637;stroke-miterlimit:10;stroke-dasharray:0.9303,1.3955;}
	.st35{fill:none;stroke:#010101;stroke-width:0.4637;stroke-miterlimit:10;stroke-dasharray:0.9218,1.3827;}
	.st36{fill:none;stroke:#010101;stroke-width:0.4637;stroke-miterlimit:10;stroke-dasharray:0.9263,1.3895;}
	.st37{opacity:0.8;fill:#FFFFFF;}
</style>
<path class="st0" d="M80.75,289.82v292.73c0,3.54,1.54,6.54,3.87,8.57l-19.36-12.27l-3.71-2.36l-0.02-0.01
	c-2.13-2.02-3.51-4.89-3.51-8.24V275.52c0-0.59,0.06-1.17,0.15-1.74c7.42,4.89,14.9,9.78,22.83,13.76
	C80.85,288.29,80.75,289.05,80.75,289.82z"/>
<path class="st1" d="M63.67,265.67L448.35,43.55c3.47-2,7.33-1.94,10.5-0.45l2.44,1.53l0.03,0.02l19.9,12.54
	c-3.08-1.27-6.71-1.22-10.01,0.67l-5.79,3.34L86.52,279.98c-2.85,1.64-4.79,4.42-5.43,7.57c-7.98-3.99-15.49-8.87-22.95-13.76
	C58.66,270.41,60.67,267.41,63.67,265.67z"/>
<path class="st2" d="M80.75,289.81v292.87c0,3.54,1.55,6.54,3.9,8.57l2.99,1.88c3.12,1.35,6.85,1.34,10.2-0.6L482.7,370.04
	c3.51-2.03,5.68-5.79,5.68-9.85V67.6c0-4.97-3.05-8.88-7.06-10.53c-3.08-1.27-6.72-1.22-10.01,0.67l-5.79,3.34L86.44,279.95
	C82.92,281.99,80.75,285.74,80.75,289.81z"/>
<path class="st3" d="M88.63,295.37v276.24c0,3.32,1.48,6.14,3.72,8.04l2.85,1.77c2.98,1.27,6.54,1.26,9.74-0.56l370.12-217.17
	c3.35-1.91,5.43-5.43,5.43-9.24l1.99-274.72c0-4.66-2.91-8.33-6.74-9.88c-2.94-1.19-6.41-1.15-9.56,0.63l-5.53,3.14L94.07,286.12
	C90.71,288.03,88.63,291.55,88.63,295.37z"/>
<path class="st4" d="M80.75,289.81v292.87c0,3.54,1.55,6.54,3.9,8.57l2.99,1.88c3.12,1.35,6.85,1.34,10.2-0.6L482.7,370.04
	c3.51-2.03,5.68-5.79,5.68-9.85V67.6c0-4.97-3.05-8.88-7.06-10.53c-3.08-1.27-6.72-1.22-10.01,0.67l-5.79,3.34L86.44,279.95
	C82.92,281.99,80.75,285.74,80.75,289.81z"/>
<path class="st5" d="M58.26,275.52v292.73c-0.27,3.35,1.12,6.22,3.26,8.24l0.02,0.01l3.73,2.36l19.46,12.27
	c-2.35-2.03-3.89-5.03-3.75-8.57V289.83c-0.15-4.06,2.02-7.82,5.54-9.85L465.41,61.2l5.79-3.34c3.29-1.89,6.93-1.94,10.01-0.67
	l-19.9-12.54l-0.03-0.02l-2.44-1.53c-3.17-1.49-7.03-1.55-10.5,0.45L63.67,265.67C60.16,267.7,57.99,271.46,58.26,275.52z"/>
<path class="st6" d="M88.63,295.37v276.24c0,3.32,1.48,6.14,3.72,8.04l2.85,1.77c2.98,1.27,6.54,1.26,9.74-0.56l370.12-217.17
	c3.35-1.91,5.43-5.43,5.43-9.24l1.99-274.72c0-4.66-2.91-8.33-6.74-9.88c-2.94-1.19-6.41-1.15-9.56,0.63l-5.53,3.14L94.07,286.12
	C90.71,288.03,88.63,291.55,88.63,295.37z"/>
<line class="st7" x1="68.23" y1="324.1" x2="68.23" y2="523.51"/>
<ellipse transform="matrix(0.8015 -0.5979 0.5979 0.8015 -171.6128 102.4041)" class="st2" cx="68.46" cy="309.73" rx="1.27" ry="2.11"/>
<path class="st6" d="M88.47,325.2L481.21,93.79"/>
<path class="st8" d="M124.89,283.94"/>
<path class="st9" d="M222.84,284.68l-117.7,68.88c-1.17,0.68-2.13,2.51-2.13,4.07v32.83c0,1.56,0.96,2.29,2.13,1.61l117.7-68.88
	c1.17-0.68,2.13-2.51,2.13-4.07v-32.83C224.97,284.73,224.01,284,222.84,284.68z"/>
<ellipse transform="matrix(0.5191 -0.8547 0.8547 0.5191 -202.4426 233.1954)" class="st0" cx="106.02" cy="296.51" rx="7.42" ry="4.32"/>
<ellipse transform="matrix(0.5191 -0.8547 0.8547 0.5191 -186.7109 242.6079)" class="st10" cx="122.25" cy="287.24" rx="7.42" ry="4.32"/>
<ellipse transform="matrix(0.5191 -0.8547 0.8547 0.5191 -170.7562 252.4167)" class="st11" cx="138.95" cy="277.96" rx="7.42" ry="4.32"/>
<path class="st12" d="M122.06,355.06c-4.98,2.87-9.01,9.18-9.01,14.08c0,1.56,0.42,2.85,1.21,3.74c0.25,0.28,0.8,0.11,1.23-0.38
	s0.58-1.13,0.33-1.41l0,0c-0.64-0.71-0.97-1.74-0.97-2.99c0-3.92,3.23-8.97,7.21-11.26c3.98-2.3,7.21-0.98,7.2,2.95
	c0,1.25-0.33,2.66-0.96,4.1c-0.25,0.57-0.1,1.03,0.33,1.02c0,0,0,0,0.01,0c0.43-0.01,0.98-0.47,1.23-1.04
	c2.49-5.68,1.01-10.26-3.3-10.22C125.19,353.66,123.64,354.15,122.06,355.06z M124.61,358.72l-1.4,2.17
	c-0.36,0.03-0.76,0.17-1.16,0.4c-1.49,0.86-2.7,2.75-2.7,4.22s1.21,1.96,2.7,1.1c1.49-0.86,2.7-2.75,2.7-4.22
	c0-0.39-0.09-0.73-0.27-0.98l1.4-2.17c0.35-0.55,0.36-1.11,0.01-1.26c0,0,0,0-0.01,0C125.53,357.85,124.97,358.18,124.61,358.72z
	 M122.06,364.85c-0.5,0.29-0.9,0.12-0.9-0.37s0.4-1.12,0.9-1.41c0.24-0.14,0.46-0.18,0.63-0.12l0,0l0,0
	c0.17,0.07,0.27,0.24,0.27,0.48C122.96,363.93,122.55,364.56,122.06,364.85z"/>
<text transform="matrix(1.0146 -0.5858 0 1 141.9997 354.8926)" class="st12 st13 st14">Performances</text>
<path class="st9" d="M222.84,382.47l-117.7,68.88c-1.17,0.68-2.13,2.51-2.13,4.07v32.83c0,1.56,0.96,2.29,2.13,1.61l117.7-68.88
	c1.17-0.68,2.13-2.51,2.13-4.07v-32.83C224.97,382.52,224.01,381.79,222.84,382.47z"/>
<text transform="matrix(1.0146 -0.5858 0 1 141.9997 452.7803)" class="st12 st13 st14">Memory</text>
<path class="st12" d="M119.22,466.83c-0.39,0.23-0.71,0.77-0.71,1.22c0,0.45,0.32,0.63,0.71,0.4s0.71-0.77,0.71-1.22
	C119.93,466.79,119.62,466.61,119.22,466.83z M122.02,453.57c-2.78,1.61-5.56,4.31-5.56,6.4v9.57c0,2.1,2.78,1.58,5.56-0.02
	c2.78-1.61,5.56-4.31,5.56-6.4v-9.57C127.59,451.45,124.8,451.97,122.02,453.57z M126.2,463.99c0,0.57-1.59,2.51-4.17,4
	c-2.59,1.49-4.17,1.38-4.17,0.81v-2.61c1.3-0.04,2.73-0.52,4.17-1.4c1.44-0.79,2.87-1.96,4.17-3.42V463.99z M126.2,459.12
	c0,0.57-1.59,2.51-4.17,4c-2.59,1.49-4.17,1.38-4.17,0.81v-2.61c1.3-0.04,2.73-0.52,4.17-1.4c1.44-0.79,2.87-1.96,4.17-3.42V459.12z
	 M122.06,458.3c-2.63,1.52-4.25,1.41-4.25,0.83c0-0.58,1.61-2.55,4.25-4.08c2.63-1.52,4.25-1.41,4.25-0.83
	C126.3,454.8,124.69,456.78,122.06,458.3z M119.22,461.97c-0.39,0.23-0.71,0.77-0.71,1.22c0,0.45,0.32,0.63,0.71,0.4
	c0.39-0.23,0.71-0.77,0.71-1.22S119.62,461.74,119.22,461.97z"/>
<path class="st9" d="M222.84,433.87l-117.7,68.88c-1.17,0.68-2.13,2.51-2.13,4.07v32.83c0,1.56,0.96,2.29,2.13,1.61l117.7-68.88
	c1.17-0.68,2.13-2.51,2.13-4.07v-32.83C224.97,433.92,224.01,433.19,222.84,433.87z"/>
<text transform="matrix(1.0146 -0.5858 0 1 141.9997 505.3271)" class="st12 st13 st14">Persistence</text>
<path class="st12" d="M117.85,510.38c0-0.85,0.58-1.88,1.31-2.35c0.3-0.19,0.56-0.44,0.68-0.77c0.28-0.77-0.1-1.17-0.6-0.88
	c-1.54,0.89-2.78,3.03-2.78,4.8v2.39c0,0.85-0.58,1.88-1.31,2.35c-0.3,0.19-0.56,0.44-0.68,0.77c-0.28,0.77,0.1,1.17,0.6,0.88
	c0.77-0.44,1.39-0.09,1.39,0.79v2.39c0,1.75,1.22,2.46,2.74,1.61c0.3-0.17,0.53-0.44,0.65-0.76c0.27-0.76-0.11-1.15-0.61-0.86
	c-0.77,0.44-1.39,0.09-1.39-0.79v-2.39c0-0.92-0.35-1.59-0.96-1.84c0.61-0.95,0.96-2.03,0.96-2.95V510.38z M129.67,508.39
	c0.04-0.5-0.29-0.68-0.73-0.44c-0.75,0.41-1.35,0.05-1.35-0.81v-2.39c0-1.75-1.22-2.46-2.74-1.61c-0.3,0.17-0.53,0.44-0.65,0.76
	c-0.27,0.76,0.11,1.15,0.61,0.86c0.77-0.44,1.39-0.09,1.39,0.79v2.39c0,0.92,0.35,1.59,0.96,1.84c-0.61,0.95-0.96,2.03-0.96,2.95
	v2.39c0,0.85-0.58,1.88-1.31,2.35c-0.3,0.19-0.56,0.44-0.68,0.77c-0.28,0.77,0.1,1.17,0.6,0.88c1.54-0.89,2.78-3.03,2.78-4.8v-2.39
	c0-0.88,0.62-1.95,1.39-2.4C129.34,509.31,129.64,508.81,129.67,508.39z"/>
<g>
	<polyline class="st15" points="238.59,289.45 239.12,288.43 239.69,354 344.33,292.36 	"/>
	<line class="st15" x1="239.64" y1="288.85" x2="239.16" y2="288.43"/>
	<line class="st16" x1="343.92" y1="294.19" x2="343.9" y2="291.41"/>
	<line class="st16" x1="341.14" y1="295.58" x2="341.12" y2="292.8"/>
	<line class="st16" x1="338.36" y1="297.44" x2="338.33" y2="294.66"/>
	<line class="st16" x1="335.11" y1="299.29" x2="335.09" y2="296.51"/>
	<line class="st16" x1="332.33" y1="300.69" x2="332.3" y2="297.9"/>
	<line class="st16" x1="329.55" y1="302.54" x2="329.52" y2="299.76"/>
	<line class="st16" x1="326.76" y1="303.93" x2="326.74" y2="301.15"/>
	<line class="st16" x1="323.98" y1="305.79" x2="323.96" y2="303"/>
	<line class="st16" x1="321.2" y1="307.64" x2="321.17" y2="304.86"/>
	<line class="st16" x1="318.42" y1="309.03" x2="318.39" y2="306.25"/>
	<line class="st16" x1="315.17" y1="310.89" x2="315.15" y2="308.11"/>
	<line class="st16" x1="312.39" y1="312.28" x2="312.36" y2="309.96"/>
	<line class="st16" x1="309.61" y1="314.13" x2="309.58" y2="311.35"/>
	<line class="st16" x1="306.82" y1="315.99" x2="306.8" y2="313.21"/>
	<line class="st16" x1="304.04" y1="317.38" x2="304.02" y2="314.6"/>
	<line class="st16" x1="301.26" y1="319.24" x2="301.23" y2="316.45"/>
	<line class="st16" x1="298.48" y1="321.09" x2="298.45" y2="318.31"/>
	<line class="st16" x1="295.23" y1="322.48" x2="295.21" y2="319.7"/>
	<line class="st16" x1="292.45" y1="324.34" x2="292.42" y2="321.55"/>
	<line class="st16" x1="289.66" y1="325.73" x2="289.64" y2="322.95"/>
	<line class="st16" x1="286.88" y1="327.58" x2="286.86" y2="324.8"/>
	<line class="st16" x1="284.1" y1="329.44" x2="284.08" y2="326.66"/>
	<line class="st16" x1="281.32" y1="330.83" x2="281.29" y2="328.05"/>
	<line class="st16" x1="278.53" y1="332.68" x2="278.51" y2="329.9"/>
	<line class="st16" x1="275.75" y1="334.54" x2="275.73" y2="331.76"/>
	<line class="st16" x1="272.51" y1="335.93" x2="272.48" y2="333.15"/>
	<line class="st16" x1="269.72" y1="337.78" x2="269.7" y2="335"/>
	<line class="st16" x1="266.94" y1="339.18" x2="266.92" y2="336.39"/>
	<line class="st16" x1="264.16" y1="341.03" x2="264.13" y2="338.25"/>
	<line class="st16" x1="261.38" y1="342.89" x2="261.35" y2="340.1"/>
	<line class="st16" x1="258.59" y1="344.28" x2="258.57" y2="341.49"/>
	<line class="st16" x1="255.81" y1="346.13" x2="255.79" y2="343.35"/>
	<line class="st16" x1="252.57" y1="347.52" x2="252.54" y2="344.74"/>
	<line class="st16" x1="249.78" y1="349.38" x2="249.76" y2="346.6"/>
	<line class="st16" x1="247" y1="351.23" x2="246.98" y2="348.45"/>
	<line class="st16" x1="244.22" y1="352.62" x2="244.19" y2="349.84"/>
	<line class="st16" x1="240.63" y1="350.05" x2="238.8" y2="351.12"/>
	<line class="st16" x1="240.58" y1="344.82" x2="238.75" y2="345.9"/>
	<line class="st16" x1="240.54" y1="339.59" x2="238.71" y2="340.67"/>
	<line class="st16" x1="240.49" y1="334.36" x2="238.66" y2="335.44"/>
	<line class="st16" x1="240.45" y1="329.13" x2="238.61" y2="330.21"/>
	<line class="st16" x1="240.4" y1="323.9" x2="238.57" y2="324.98"/>
	<line class="st16" x1="240.35" y1="318.67" x2="238.52" y2="319.75"/>
	<line class="st16" x1="240.31" y1="313.44" x2="238.48" y2="314.52"/>
	<line class="st16" x1="240.26" y1="308.22" x2="238.43" y2="309.3"/>
	<line class="st16" x1="240.22" y1="302.99" x2="238.39" y2="304.07"/>
	<line class="st16" x1="240.17" y1="297.76" x2="238.34" y2="298.84"/>
	<line class="st16" x1="240.13" y1="292.53" x2="238.29" y2="293.61"/>
	<line class="st16" x1="241.44" y1="354.48" x2="241.41" y2="351.7"/>
	<polyline class="st17" points="242.58,296.25 273.86,277.83 278.33,326.52 279.62,274.73 294.97,265.69 299.3,295.18 
		300.67,262.33 314.9,253.95 318.18,301.97 317.75,252.27 340.53,238.85 	"/>
</g>
<g>
	<polyline class="st18" points="359.14,218.57 359.69,217.55 360.26,283.11 469.42,218.82 	"/>
	<line class="st18" x1="360.26" y1="217.96" x2="359.76" y2="217.55"/>
	<line class="st19" x1="469.13" y1="220.46" x2="469.11" y2="217.68"/>
	<line class="st19" x1="465.89" y1="222.31" x2="465.86" y2="219.53"/>
	<line class="st19" x1="463.1" y1="224.17" x2="463.08" y2="221.39"/>
	<line class="st19" x1="459.86" y1="225.56" x2="459.83" y2="222.78"/>
	<line class="st19" x1="457.07" y1="227.41" x2="457.05" y2="224.63"/>
	<line class="st19" x1="454.29" y1="229.27" x2="454.27" y2="226.49"/>
	<line class="st19" x1="451.05" y1="231.12" x2="451.02" y2="228.34"/>
	<line class="st19" x1="448.26" y1="232.98" x2="448.24" y2="230.2"/>
	<line class="st19" x1="445.02" y1="234.37" x2="444.99" y2="231.59"/>
	<line class="st19" x1="442.23" y1="236.23" x2="442.21" y2="233.44"/>
	<line class="st19" x1="439.45" y1="238.08" x2="439.43" y2="235.3"/>
	<line class="st19" x1="436.21" y1="239.94" x2="436.18" y2="237.15"/>
	<line class="st19" x1="433.42" y1="241.33" x2="433.4" y2="238.54"/>
	<line class="st19" x1="430.18" y1="243.18" x2="430.15" y2="240.4"/>
	<line class="st19" x1="427.4" y1="245.04" x2="427.37" y2="242.25"/>
	<line class="st19" x1="424.61" y1="246.89" x2="424.59" y2="244.11"/>
	<line class="st19" x1="421.37" y1="248.75" x2="421.34" y2="245.96"/>
	<line class="st19" x1="418.58" y1="250.14" x2="418.56" y2="247.36"/>
	<line class="st19" x1="415.34" y1="251.99" x2="415.31" y2="249.21"/>
	<line class="st19" x1="412.56" y1="253.85" x2="412.53" y2="251.07"/>
	<line class="st19" x1="409.77" y1="255.7" x2="409.75" y2="252.92"/>
	<line class="st19" x1="406.53" y1="257.09" x2="406.5" y2="254.31"/>
	<line class="st19" x1="403.74" y1="258.95" x2="403.72" y2="256.17"/>
	<line class="st19" x1="400.5" y1="260.8" x2="400.47" y2="258.02"/>
	<line class="st19" x1="397.72" y1="262.66" x2="397.69" y2="259.88"/>
	<line class="st19" x1="394.47" y1="264.05" x2="394.45" y2="261.27"/>
	<line class="st19" x1="391.69" y1="265.91" x2="391.66" y2="263.12"/>
	<line class="st19" x1="388.9" y1="267.76" x2="388.88" y2="264.98"/>
	<line class="st19" x1="385.66" y1="269.62" x2="385.63" y2="266.83"/>
	<line class="st19" x1="382.88" y1="271.47" x2="382.85" y2="268.69"/>
	<line class="st19" x1="379.63" y1="272.86" x2="379.61" y2="270.08"/>
	<line class="st19" x1="376.85" y1="274.72" x2="376.82" y2="271.93"/>
	<line class="st19" x1="374.07" y1="276.57" x2="374.04" y2="273.79"/>
	<line class="st19" x1="370.82" y1="278.43" x2="370.79" y2="275.64"/>
	<line class="st19" x1="368.04" y1="279.82" x2="368.01" y2="277.03"/>
	<line class="st19" x1="364.79" y1="281.67" x2="364.77" y2="278.89"/>
	<line class="st19" x1="361.27" y1="279.14" x2="359.36" y2="280.26"/>
	<line class="st19" x1="361.22" y1="273.91" x2="359.31" y2="275.03"/>
	<line class="st19" x1="361.18" y1="268.68" x2="359.26" y2="269.8"/>
	<line class="st19" x1="361.13" y1="263.45" x2="359.22" y2="264.58"/>
	<line class="st19" x1="361.08" y1="258.22" x2="359.17" y2="259.35"/>
	<line class="st19" x1="361.04" y1="252.99" x2="359.13" y2="254.12"/>
	<line class="st19" x1="360.99" y1="247.76" x2="359.08" y2="248.89"/>
	<line class="st19" x1="360.95" y1="242.54" x2="359.04" y2="243.66"/>
	<line class="st19" x1="360.9" y1="237.31" x2="358.99" y2="238.43"/>
	<line class="st19" x1="360.86" y1="232.08" x2="358.95" y2="233.2"/>
	<line class="st19" x1="360.81" y1="226.85" x2="358.9" y2="227.98"/>
	<line class="st19" x1="360.77" y1="221.62" x2="358.85" y2="222.75"/>
	<line class="st19" x1="362.01" y1="283.53" x2="361.98" y2="280.74"/>
	<path class="st20" d="M363.72,272.44c0,0,27.43-18.18,40.79-45.82c13.36-27.64,36.36-33.81,52.9-66.59"/>
</g>
<g>
	<polyline class="st15" points="239.52,388.02 240.04,387.01 240.62,452.57 345.25,390.94 	"/>
	<line class="st15" x1="240.69" y1="387.43" x2="240.21" y2="387.01"/>
	<line class="st16" x1="344.85" y1="392.51" x2="344.83" y2="389.72"/>
	<line class="st16" x1="342.07" y1="394.36" x2="342.04" y2="391.58"/>
	<line class="st16" x1="339.28" y1="396.22" x2="339.26" y2="393.43"/>
	<line class="st16" x1="336.5" y1="397.61" x2="336.48" y2="394.82"/>
	<line class="st16" x1="333.72" y1="399.46" x2="333.7" y2="396.68"/>
	<line class="st16" x1="330.47" y1="400.85" x2="330.45" y2="398.07"/>
	<line class="st16" x1="327.69" y1="402.71" x2="327.67" y2="399.93"/>
	<line class="st16" x1="324.91" y1="404.56" x2="324.88" y2="401.78"/>
	<line class="st16" x1="322.13" y1="405.95" x2="322.1" y2="403.17"/>
	<line class="st16" x1="319.34" y1="407.81" x2="319.32" y2="405.03"/>
	<line class="st16" x1="316.56" y1="409.2" x2="316.54" y2="406.42"/>
	<line class="st16" x1="313.78" y1="411.06" x2="313.75" y2="408.27"/>
	<line class="st16" x1="310.53" y1="412.91" x2="310.51" y2="410.13"/>
	<line class="st16" x1="307.75" y1="414.3" x2="307.73" y2="411.52"/>
	<line class="st16" x1="304.97" y1="416.16" x2="304.94" y2="413.37"/>
	<line class="st16" x1="302.19" y1="418.01" x2="302.16" y2="415.23"/>
	<line class="st16" x1="299.4" y1="419.4" x2="299.38" y2="416.62"/>
	<line class="st16" x1="296.62" y1="421.26" x2="296.6" y2="418.48"/>
	<line class="st16" x1="293.84" y1="422.65" x2="293.81" y2="419.87"/>
	<line class="st16" x1="290.59" y1="424.5" x2="290.57" y2="421.72"/>
	<line class="st16" x1="287.81" y1="426.36" x2="287.79" y2="423.58"/>
	<line class="st16" x1="285.03" y1="427.75" x2="285" y2="424.97"/>
	<line class="st16" x1="282.24" y1="429.61" x2="282.22" y2="426.82"/>
	<line class="st16" x1="279.46" y1="431" x2="279.44" y2="428.21"/>
	<line class="st16" x1="276.68" y1="432.85" x2="276.66" y2="430.07"/>
	<line class="st16" x1="273.9" y1="434.71" x2="273.87" y2="431.92"/>
	<line class="st16" x1="270.65" y1="436.1" x2="270.63" y2="433.32"/>
	<line class="st16" x1="267.87" y1="437.95" x2="267.84" y2="435.17"/>
	<line class="st16" x1="265.09" y1="439.81" x2="265.06" y2="437.03"/>
	<line class="st16" x1="262.3" y1="441.2" x2="262.28" y2="438.42"/>
	<line class="st16" x1="259.52" y1="443.05" x2="259.5" y2="440.27"/>
	<line class="st16" x1="256.74" y1="444.44" x2="256.71" y2="441.66"/>
	<line class="st16" x1="253.96" y1="446.3" x2="253.93" y2="443.52"/>
	<line class="st16" x1="251.17" y1="448.15" x2="251.15" y2="445.37"/>
	<line class="st16" x1="247.93" y1="449.55" x2="247.9" y2="446.76"/>
	<line class="st16" x1="245.15" y1="451.4" x2="245.12" y2="448.62"/>
	<line class="st16" x1="241.68" y1="448.62" x2="239.85" y2="449.7"/>
	<line class="st16" x1="241.63" y1="443.39" x2="239.8" y2="444.47"/>
	<line class="st16" x1="241.59" y1="438.16" x2="239.76" y2="439.24"/>
	<line class="st16" x1="241.54" y1="432.93" x2="239.71" y2="434.01"/>
	<line class="st16" x1="241.5" y1="427.7" x2="239.66" y2="428.78"/>
	<line class="st16" x1="241.45" y1="422.48" x2="239.62" y2="423.55"/>
	<line class="st16" x1="241.4" y1="417.25" x2="239.57" y2="418.33"/>
	<line class="st16" x1="241.36" y1="412.02" x2="239.53" y2="413.1"/>
	<line class="st16" x1="241.31" y1="406.79" x2="239.48" y2="407.87"/>
	<line class="st16" x1="241.27" y1="401.56" x2="239.44" y2="402.64"/>
	<line class="st16" x1="241.22" y1="396.33" x2="239.39" y2="397.41"/>
	<line class="st16" x1="241.18" y1="391.1" x2="239.34" y2="392.18"/>
	<line class="st16" x1="242.36" y1="452.79" x2="242.34" y2="450.01"/>
</g>
<path class="st20" d="M244.85,404.71c0,0,4.64,11.42,17.19,2.39c12.56-9.02,17.01-23.94,28.35-30.62
	c11.34-6.68,4.64,18.78,17.08,10.94c12.44-7.84,14.77-30.47,27.38-38.67s9.46-3.79,9.46-3.79"/>
<g>
	<polyline class="st18" points="360.07,317.14 360.62,316.12 361.19,381.68 470.35,317.39 	"/>
	<line class="st18" x1="361.32" y1="316.52" x2="360.82" y2="316.12"/>
	<line class="st19" x1="470.06" y1="319.24" x2="470.03" y2="316.45"/>
	<line class="st19" x1="467.28" y1="320.63" x2="467.25" y2="317.84"/>
	<line class="st19" x1="464.03" y1="322.48" x2="464.01" y2="319.7"/>
	<line class="st19" x1="461.25" y1="324.34" x2="461.22" y2="321.55"/>
	<line class="st19" x1="458" y1="326.19" x2="457.98" y2="323.41"/>
	<line class="st19" x1="455.22" y1="328.05" x2="455.2" y2="325.26"/>
	<line class="st19" x1="451.97" y1="329.44" x2="451.95" y2="326.66"/>
	<line class="st19" x1="449.19" y1="331.29" x2="449.17" y2="328.51"/>
	<line class="st19" x1="446.41" y1="333.15" x2="446.38" y2="330.36"/>
	<line class="st19" x1="443.16" y1="335" x2="443.14" y2="332.22"/>
	<line class="st19" x1="440.38" y1="336.39" x2="440.36" y2="333.61"/>
	<line class="st19" x1="437.13" y1="338.25" x2="437.11" y2="335.47"/>
	<line class="st19" x1="434.35" y1="340.1" x2="434.33" y2="337.32"/>
	<line class="st19" x1="431.57" y1="341.96" x2="431.54" y2="339.18"/>
	<line class="st19" x1="428.32" y1="343.81" x2="428.3" y2="341.03"/>
	<line class="st19" x1="425.54" y1="345.2" x2="425.52" y2="342.42"/>
	<line class="st19" x1="422.29" y1="347.06" x2="422.27" y2="344.28"/>
	<line class="st19" x1="419.51" y1="348.91" x2="419.49" y2="346.13"/>
	<line class="st19" x1="416.73" y1="350.77" x2="416.7" y2="347.99"/>
	<line class="st19" x1="413.48" y1="352.16" x2="413.46" y2="349.38"/>
	<line class="st19" x1="410.7" y1="354.02" x2="410.68" y2="351.23"/>
	<line class="st19" x1="407.45" y1="355.87" x2="407.43" y2="353.09"/>
	<line class="st19" x1="404.67" y1="357.73" x2="404.65" y2="354.94"/>
	<line class="st19" x1="401.89" y1="359.12" x2="401.87" y2="356.33"/>
	<line class="st19" x1="398.64" y1="360.97" x2="398.62" y2="358.19"/>
	<line class="st19" x1="395.86" y1="362.83" x2="395.84" y2="360.04"/>
	<line class="st19" x1="392.61" y1="364.68" x2="392.59" y2="361.9"/>
	<line class="st19" x1="389.83" y1="366.54" x2="389.81" y2="363.75"/>
	<line class="st19" x1="387.05" y1="367.93" x2="387.03" y2="365.15"/>
	<line class="st19" x1="383.8" y1="369.78" x2="383.78" y2="367"/>
	<line class="st19" x1="381.02" y1="371.64" x2="381" y2="368.86"/>
	<line class="st19" x1="377.77" y1="373.49" x2="377.75" y2="370.71"/>
	<line class="st19" x1="374.99" y1="374.88" x2="374.97" y2="372.1"/>
	<line class="st19" x1="372.21" y1="376.74" x2="372.19" y2="373.96"/>
	<line class="st19" x1="368.96" y1="378.59" x2="368.94" y2="375.81"/>
	<line class="st19" x1="366.18" y1="380.45" x2="366.16" y2="377.67"/>
	<line class="st19" x1="362.33" y1="377.7" x2="360.41" y2="378.83"/>
	<line class="st19" x1="362.28" y1="372.48" x2="360.37" y2="373.6"/>
	<line class="st19" x1="362.23" y1="367.25" x2="360.32" y2="368.37"/>
	<line class="st19" x1="362.19" y1="362.02" x2="360.28" y2="363.14"/>
	<line class="st19" x1="362.14" y1="356.79" x2="360.23" y2="357.92"/>
	<line class="st19" x1="362.1" y1="351.56" x2="360.19" y2="352.69"/>
	<line class="st19" x1="362.05" y1="346.33" x2="360.14" y2="347.46"/>
	<line class="st19" x1="362.01" y1="341.1" x2="360.1" y2="342.23"/>
	<line class="st19" x1="361.96" y1="335.88" x2="360.05" y2="337"/>
	<line class="st19" x1="361.92" y1="330.65" x2="360" y2="331.77"/>
	<line class="st19" x1="361.87" y1="325.42" x2="359.96" y2="326.54"/>
	<line class="st19" x1="361.82" y1="320.19" x2="359.91" y2="321.31"/>
	<line class="st19" x1="362.94" y1="382.3" x2="362.91" y2="379.52"/>
</g>
<polyline class="st21" points="365.36,323.36 377.24,316.36 383.4,337.73 386.35,311 395.27,329.05 401.12,293.08 407.23,309.21 
	411.27,296.32 421.8,290.12 428.28,326.62 430.82,274.89 433.87,283 448.73,274.26 452.01,308.39 454.59,261.59 457.44,269.12 
	466.35,263.87 "/>
<path class="st22" d="M253.67,321.75L97.03,413.42c-1.56,0.9-2.84,3.34-2.84,5.42v43.69c0,2.08,1.28,3.04,2.84,2.14L253.67,373
	c1.56-0.9,2.84-3.34,2.84-5.42v-43.69C256.51,321.81,255.23,320.85,253.67,321.75z"/>
<text transform="matrix(1.0146 -0.5858 0 1 146.0372 416.0293)" class="st0 st13 st23">Activities</text>
<path class="st0" d="M111.36,431.64v9.13c0,0.08,0.05,0.19,0.13,0.23c0.79,0.39,1.73-0.78,1.73-1.66v-8.51
	c0-0.88-0.94-0.97-1.73,0.34C111.39,431.31,111.36,431.48,111.36,431.64z M115.99,417.99v19.76c0,0.08,0.05,0.19,0.13,0.23
	c0.79,0.39,1.73-0.78,1.73-1.66v-19.14c0-0.88-0.94-0.97-1.73,0.34C116.03,417.67,115.99,417.83,115.99,417.99z M125.73,427.61v4.88
	c0,0.08,0.05,0.19,0.13,0.23c0.79,0.39,1.73-0.78,1.73-1.66v-4.25c0-0.88-0.94-0.97-1.73,0.34
	C125.77,427.29,125.73,427.45,125.73,427.61z M121.09,421.72v13.38c0,0.08,0.05,0.19,0.13,0.23c0.79,0.39,1.73-0.78,1.73-1.66
	v-12.76c0-0.88-0.94-0.97-1.73,0.34C121.13,421.39,121.09,421.55,121.09,421.72z"/>
<path class="st1" d="M353.43,626.98V706c3.14,0.4,6.35-0.01,8.58-1.3l148.91-85.97c1.68-0.97,2.5-2.27,2.5-3.63v-80.5L353.43,626.98
	z"/>
<path class="st0" d="M352.68,627.36c-4.38,2.53-12.03,2.21-17.08-0.71l-20.19-11.66v67.97c0,1.64,1.2,3.38,3.55,4.73l28.57,16.5
	c1.72,0.99,3.8,1.63,5.91,1.89v-79.16L352.68,627.36z"/>
<path class="st0" d="M341.43,613.38c-2.07-0.38-4.09-1.07-5.8-2.06l-20.21-11.67l-9.26-5.35l-4.2-2.43
	c-2.77-1.59-4.18-3.64-4.18-5.58v15.42c0,1.94,1.42,3.99,4.18,5.58l13.47,7.77l20.21,11.67c2.2,1.27,4.89,2.05,7.59,2.32v-15.43
	C342.63,613.58,342.03,613.49,341.43,613.38z"/>
<path class="st1" d="M528.1,510.75l-5.43,3.13L352.7,612.02c-1.43,0.83-3.21,1.35-5.14,1.57c-1.39,0.16-2.86,0.17-4.33,0.02v15.39
	c3.5,0.34,7.01-0.17,9.48-1.6l160.73-92.8l14.66-8.46c1.98-1.14,2.95-2.67,2.95-4.27v-15.39
	C531.04,508.08,530.07,509.61,528.1,510.75z"/>
<path class="st3" d="M530.95,506.47c0,1.6-0.97,3.13-2.95,4.27l-5.43,3.13l-169.99,98.15c-1.43,0.83-3.21,1.35-5.14,1.57
	c-1.96,0.23-4.08,0.15-6.12-0.23c-2.07-0.38-4.08-1.07-5.79-2.05l-20.16-11.64l-9.24-5.34l-4.19-2.42
	c-2.76-1.59-4.18-3.63-4.18-5.56c0-1.6,0.97-3.14,2.95-4.28L476.13,480.8c4.37-2.52,12.01-2.21,17.05,0.7l33.59,19.4
	C529.53,502.5,530.95,504.54,530.95,506.47z"/>
<path class="st0" d="M433.95,536.65l-16.8-9.7l-3.42-1.98c-1.85-1.07-2.8-2.45-2.8-3.77v11.09c0,1.31,0.95,2.7,2.8,3.77l20.22,11.68
	c1.39,0.8,3.09,1.31,4.8,1.51v-11.09C437.04,537.96,435.35,537.45,433.95,536.65z"/>
<path class="st0" d="M423.07,494.75l6.39,27.74c0.22,1.04,0.54,1.75,0.99,2.05l0.29,0.13l4.14,1.83c-0.46-0.29-0.77-1-1.01-2.05
	l-0.23-1.02l-6.16-26.72c-0.11-0.51-0.07-1.05,0.08-1.58l-4.48-1.67C422.99,493.9,422.98,494.33,423.07,494.75z"/>
<path class="st3" d="M471.89,464l-0.36-0.16c-0.33-0.08-0.71,0-1.17,0.26l-44.76,25.84c-1.06,0.61-2.21,2.06-2.51,3.51l4.48,1.67
	c0.38-1.35,1.44-2.65,2.44-3.22l43.09-24.88l1.67-0.97c0.54-0.31,0.99-0.37,1.35-0.21L471.89,464z"/>
<path class="st4" d="M478.76,499.3l-40.28,23.55c-0.41,0.23-0.75,0.32-1.02,0.24l-0.02-0.01l-0.23-0.11
	c-0.39-0.25-0.66-0.85-0.85-1.74l-0.2-0.86l-5.24-22.72c-0.34-1.53,0.96-3.4,2.14-4.08l38.86-22.73l1.42-0.82
	c0.46-0.27,0.84-0.32,1.15-0.18c0.49,0.21,0.81,0.85,0.99,1.79l5.44,23.59C481.34,497.07,479.94,498.62,478.76,499.3z"/>
<path class="st0" d="M357.75,591.05l-16.03,9.25c-1.32,0.76-3.65,0.67-5.18-0.21l-15.13-8.74c-1.53-0.88-1.69-2.23-0.37-2.99
	l16.03-9.25c1.32-0.76,3.65-0.67,5.18,0.21l15.13,8.74C358.91,588.94,359.07,590.29,357.75,591.05z"/>
<path class="st24" d="M401.67,541.64l-49.74,28.72c-1.78,1.03-1.79,2.71-0.02,3.73l13.46,7.77c1.77,1.02,4.68,1.02,6.46-0.01
	l24.87-14.36l24.87-14.36c1.78-1.03,1.79-2.71,0.02-3.73l-13.46-7.77C406.36,540.6,403.45,540.61,401.67,541.64z"/>
<line class="st25" x1="411.37" y1="577.87" x2="395.04" y2="568.44"/>
<line class="st25" x1="411.4" y1="577.77" x2="411.4" y2="593.54"/>
<line class="st25" x1="400.27" y1="600.03" x2="400.27" y2="682.58"/>
<path class="st4" d="M347.44,613.6"/>
<path class="st4" d="M530.95,506.47c0,1.6-0.97,3.13-2.95,4.27l-5.43,3.13l-169.99,98.15c-1.43,0.83-3.21,1.35-5.14,1.57
	c-1.96,0.23-4.08,0.15-6.12-0.23c-2.07-0.38-4.08-1.07-5.79-2.05l-20.16-11.64l-9.24-5.34l-4.19-2.42
	c-2.76-1.59-4.18-3.63-4.18-5.56c0-1.6,0.97-3.14,2.95-4.28L476.13,480.8c4.37-2.52,12.01-2.21,17.05,0.7l33.59,19.4
	C529.53,502.5,530.95,504.54,530.95,506.47z"/>
<path class="st4" d="M513.42,534.58v80.52c0,1.36-0.82,2.66-2.5,3.63l-148.96,86c-3.71,2.15-10.19,1.88-14.48-0.6l-28.53-16.48
	c-2.34-1.35-3.54-3.08-3.54-4.73v-67.87l20.16,11.64c5.05,2.92,12.68,3.24,17.06,0.71L513.42,534.58z"/>
<path class="st4" d="M315.37,595.71"/>
<path class="st4" d="M531.04,506.45v15.4c0,1.6-0.97,3.13-2.95,4.27l-14.67,8.47l-160.81,92.85c-4.38,2.53-12.01,2.21-17.06-0.71
	l-20.17-11.64l-13.44-7.76c-2.76-1.59-4.18-3.63-4.18-5.57v-15.39c0,1.93,1.41,3.98,4.18,5.57l4.19,2.42l9.25,5.34l20.17,11.64
	c1.71,0.98,3.72,1.67,5.79,2.05c2.05,0.38,4.16,0.46,6.12,0.23c1.93-0.22,3.71-0.74,5.15-1.57l170.05-98.18l5.43-3.13
	C530.07,509.58,531.04,508.05,531.04,506.45z"/>
<path class="st4" d="M530.95,506.47"/>
<path class="st4" d="M530.95,521.87"/>
<path class="st4" d="M498.12,504.63v0.36c-0.04,1.04-0.68,2.02-1.96,2.76l-4.23,2.44l-46.63,26.92c-2.93,1.7-8.09,1.48-11.48-0.47
	l-16.72-9.66l-3.41-1.97c-1.85-1.06-2.79-2.44-2.79-3.75c0-1.07,0.64-2.11,1.97-2.87l50.87-29.37c2.93-1.69,8.09-1.47,11.47,0.48
	l20.13,11.62C497.06,502.12,498.01,503.39,498.12,504.63z"/>
<g>
	<path class="st10" d="M498.11,504.99c-0.02,0.49-0.17,0.96-0.46,1.4l0.46,0.27L498.11,504.99z"/>
	<path class="st26" d="M505.86,511.19l-8.21-4.74l0.46,9.43v-0.07c-0.01,1.07-0.66,2.11-1.99,2.87l-50.19,28.98
		c3.23,1.11,7.19,1.01,9.62-0.4l46.98-27.12l4.26-2.46c1.29-0.75,1.94-1.73,1.98-2.78v-0.03
		C508.67,513.57,507.67,512.24,505.86,511.19z"/>
	<path class="st10" d="M498.11,506.72l-0.46-0.27c-0.32,0.5-0.82,0.96-1.5,1.36l-4.22,2.43l-46.5,26.84c-1.72,1-4.23,1.33-6.68,1.04
		v5.17v5.84c2.46,0.29,4.96-0.04,6.68-1.03l1.04-0.6l49.67-28.68c1.31-0.76,1.96-1.78,1.97-2.84v-0.05L498.11,506.72z"/>
</g>
<path class="st4" d="M498.12,515.88v0.06c-0.01,1.06-0.65,2.09-1.97,2.85l-50.83,29.35c-2.93,1.69-8.09,1.48-11.47-0.47
	l-20.12-11.62c-1.84-1.06-2.79-2.44-2.79-3.75v-11.04c0,1.3,0.94,2.67,2.78,3.73l3.39,1.96l16.63,9.6c3.37,1.94,8.5,2.15,11.42,0.47
	l46.36-26.76l4.2-2.43c1.27-0.74,1.91-1.71,1.95-2.75L498.12,515.88z"/>
<path class="st27" d="M481.15,500.5l-44.76,25.84c-0.48,0.27-0.88,0.37-1.2,0.28l-0.03-0.01l-0.27-0.13c-0.46-0.29-0.77-1-1.01-2.05
	l-0.23-1.02l-6.16-26.72c-0.4-1.8,1.13-4,2.52-4.8l43.09-24.88l1.67-0.97c0.54-0.31,0.99-0.37,1.35-0.21
	c0.58,0.24,0.96,1.01,1.16,2.11l6.39,27.75C484.18,497.88,482.54,499.7,481.15,500.5z"/>
<line class="st4" x1="471.53" y1="463.84" x2="471.49" y2="463.82"/>
<path class="st4" d="M476.12,465.84c-0.36-0.16-0.81-0.1-1.35,0.21l-1.67,0.97L430,491.9c-1.39,0.8-2.92,3.01-2.52,4.8l6.16,26.72
	l0.23,1.02c0.23,1.05,0.55,1.76,1.01,2.05l-4.14-1.83l-0.29-0.13c-0.45-0.3-0.76-1.01-0.99-2.05l-6.39-27.74
	c-0.4-1.8,1.13-4,2.52-4.8l44.76-25.84c0.46-0.26,0.84-0.34,1.17-0.26l0.36,0.16L476.12,465.84z"/>
<path class="st28" d="M478.76,499.3l-40.28,23.55c-0.41,0.23-0.75,0.32-1.02,0.24l-0.02-0.01l-0.23-0.11
	c-0.39-0.25-0.66-0.85-0.85-1.74l-0.2-0.86l-5.24-22.72c-0.34-1.53,0.96-3.4,2.14-4.08l38.86-22.73l1.42-0.82
	c0.46-0.27,0.84-0.32,1.15-0.18c0.49,0.21,0.81,0.85,0.99,1.79l5.44,23.59C481.34,497.07,479.94,498.62,478.76,499.3z"/>
<path class="st29" d="M579.67,589.6l-33.59-19.4c-5.05-2.91-12.68-3.22-17.05-0.7l-15.61,9.01V534.6l-148.99,86.02l14.9,74.13
	l9.11,5.26c1.71,0.98,3.72,1.67,5.79,2.05c2.05,0.38,4.16,0.46,6.12,0.23c1.93-0.22,3.71-0.74,5.14-1.57l169.99-98.15l5.43-3.13
	c1.98-1.14,2.95-2.67,2.95-4.27C583.85,593.23,582.44,591.2,579.67,589.6z"/>
<polyline class="st30" points="434.23,496.56 436.64,496.24 438.57,494.62 440.22,494.13 441.71,492.64 444.29,491.7 446.32,489.98 
	448.76,488.88 452.52,487.16 454,486.22 455.59,485.83 458.54,483.01 461.36,481.92 464.18,481.37 465.67,479.27 468.34,478.9 
	469.51,477.14 471.78,477.14 473.19,475.34 "/>
<polyline class="st30" points="435.48,500.27 437.89,499.95 439.82,498.33 441.47,497.84 442.96,496.35 445.54,495.41 
	447.57,493.69 450.01,492.59 453.76,490.87 455.25,489.93 456.84,489.54 459.79,486.72 462.61,485.62 465.43,485.08 466.92,482.98 
	469.59,482.61 470.76,480.85 473.03,480.85 474.44,479.05 "/>
<polyline class="st30" points="435.48,504.44 437.89,504.12 439.82,502.5 441.47,502.01 442.96,500.53 445.54,499.59 447.57,497.86 
	450.01,496.77 453.76,495.04 455.25,494.11 456.84,493.71 459.79,490.89 462.61,489.8 465.43,489.25 466.92,487.15 469.59,486.78 
	470.76,485.02 473.03,485.02 474.44,483.22 "/>
<polyline class="st30" points="436.45,508.61 438.85,508.3 440.79,506.67 442.44,506.19 443.92,504.7 446.51,503.76 448.53,502.04 
	450.97,500.94 454.73,499.22 456.22,498.28 457.81,497.89 460.76,495.07 463.58,493.97 466.4,493.42 467.88,491.32 470.55,490.95 
	471.72,489.2 473.99,489.2 475.4,487.39 "/>
<polyline class="st30" points="437.16,512.32 439.56,512.01 441.5,510.38 443.15,509.9 444.64,508.41 447.22,507.47 449.24,505.75 
	451.68,504.65 455.44,502.93 456.93,501.99 458.52,501.6 461.47,498.78 464.29,497.68 467.11,497.13 468.6,495.03 471.27,494.66 
	472.43,492.91 474.7,492.91 476.11,491.1 "/>
<polyline class="st30" points="438.07,516.03 440.47,515.72 442.41,514.09 444.06,513.61 445.55,512.12 448.13,511.18 
	450.16,509.46 452.59,508.36 456.35,506.64 457.84,505.7 459.43,505.31 462.38,502.49 465.2,501.39 468.02,500.84 469.51,498.74 
	472.18,498.37 473.34,496.62 475.61,496.62 477.02,494.81 "/>
<path class="st29" d="M513.55,395.92l-378.3,218.41c-1.77,1.02-1.54,2.82,0.5,4l20.11,11.61c2.04,1.18,5.16,1.31,6.92,0.29
	l378.3-218.41c1.77-1.02,1.54-2.82-0.5-4l-20.11-11.61C518.44,395.03,515.32,394.9,513.55,395.92z"/>
<path class="st0" d="M480.3,590.04l-76.19,43.99c-0.78,0.45-1.12,2.18-0.75,3.84l0,0c0.36,1.67,1.3,2.66,2.07,2.21l76.19-43.99
	c0.78-0.45,1.12-2.18,0.75-3.84l0,0C482.01,590.59,481.07,589.59,480.3,590.04z"/>
<g>
	<g>
		<line class="st8" x1="333.49" y1="696.07" x2="333.09" y2="696.3"/>
		<line class="st31" x1="331.89" y1="697.01" x2="254.78" y2="742.42"/>
		<polyline class="st8" points="254.19,742.77 253.79,743.01 253.41,742.75 		"/>
		<line class="st32" x1="252.26" y1="741.96" x2="174.8" y2="688.47"/>
		<polyline class="st8" points="174.23,688.08 173.85,687.81 173.45,688.04 		"/>
		<line class="st33" x1="172.22" y1="688.73" x2="129.93" y2="712.64"/>
		<polyline class="st8" points="129.32,712.98 128.92,713.21 128.54,712.94 		"/>
		<line class="st34" x1="127.42" y1="712.11" x2="66.04" y2="667.2"/>
		<polyline class="st8" points="65.47,666.79 65.1,666.52 65.5,666.29 		"/>
		<line class="st35" x1="66.7" y1="665.6" x2="148.15" y2="619.08"/>
		<polyline class="st8" points="148.75,618.74 149.15,618.51 149.15,618.05 		"/>
		<line class="st36" x1="149.15" y1="616.66" x2="149.15" y2="564.09"/>
		<line class="st8" x1="149.15" y1="563.39" x2="149.15" y2="562.93"/>
	</g>
</g>
<path class="st37" d="M363.28,570.76l-1.86,1.08c-0.72,0.41-1.98,0.36-2.81-0.12l-0.8-0.46c-0.83-0.48-0.92-1.21-0.2-1.62l1.86-1.08
	c0.72-0.41,1.98-0.36,2.81,0.12l0.8,0.46C363.91,569.62,364,570.35,363.28,570.76z"/>
<path class="st37" d="M368.96,567.49l-1.86,1.08c-0.72,0.41-1.98,0.36-2.81-0.12l-0.8-0.46c-0.83-0.48-0.92-1.21-0.2-1.62l1.86-1.08
	c0.72-0.41,1.98-0.36,2.81,0.12l0.8,0.46C369.59,566.34,369.68,567.07,368.96,567.49z"/>
<path class="st37" d="M374.63,564.21l-1.86,1.08c-0.72,0.41-1.98,0.36-2.81-0.12l-0.8-0.46c-0.83-0.48-0.92-1.21-0.2-1.62l1.86-1.08
	c0.72-0.41,1.98-0.36,2.81,0.12l0.8,0.46C375.26,563.07,375.35,563.8,374.63,564.21z"/>
<path class="st37" d="M380.31,560.94l-1.86,1.08c-0.72,0.41-1.98,0.36-2.81-0.12l-0.8-0.46c-0.83-0.48-0.92-1.21-0.2-1.62l1.86-1.08
	c0.72-0.41,1.98-0.36,2.81,0.12l0.8,0.46C380.93,559.79,381.02,560.52,380.31,560.94z"/>
<path class="st37" d="M385.98,557.66l-1.86,1.08c-0.72,0.41-1.98,0.36-2.81-0.12l-0.8-0.46c-0.83-0.48-0.92-1.21-0.2-1.62l1.86-1.08
	c0.72-0.41,1.98-0.36,2.81,0.12l0.8,0.46C386.61,556.52,386.7,557.25,385.98,557.66z"/>
<path class="st37" d="M391.65,554.38l-1.86,1.08c-0.72,0.41-1.98,0.36-2.81-0.12l-0.8-0.46c-0.83-0.48-0.92-1.21-0.2-1.62l1.86-1.08
	c0.72-0.41,1.98-0.36,2.81,0.12l0.8,0.46C392.28,553.24,392.37,553.97,391.65,554.38z"/>
<path class="st37" d="M397.33,551.11l-1.86,1.08c-0.72,0.41-1.98,0.36-2.81-0.12l-0.8-0.46c-0.83-0.48-0.92-1.21-0.2-1.62l1.86-1.08
	c0.72-0.41,1.98-0.36,2.81,0.12l0.8,0.46C397.95,549.96,398.05,550.69,397.33,551.11z"/>
<path class="st37" d="M403,547.83l-1.86,1.08c-0.72,0.41-1.98,0.36-2.81-0.12l-0.8-0.46c-0.83-0.48-0.92-1.21-0.2-1.62l1.86-1.08
	c0.72-0.41,1.98-0.36,2.81,0.12l0.8,0.46C403.63,546.69,403.72,547.42,403,547.83z"/>
<path class="st37" d="M368.55,573.81l-1.86,1.08c-0.72,0.41-1.98,0.36-2.81-0.12l-0.8-0.46c-0.83-0.48-0.92-1.21-0.2-1.62l1.86-1.08
	c0.72-0.41,1.98-0.36,2.81,0.12l0.8,0.46C369.18,572.66,369.27,573.39,368.55,573.81z"/>
<path class="st37" d="M374.23,570.53l-1.86,1.08c-0.72,0.41-1.98,0.36-2.81-0.12l-0.8-0.46c-0.83-0.48-0.92-1.21-0.2-1.62l1.86-1.08
	c0.72-0.41,1.98-0.36,2.81,0.12l0.8,0.46C374.86,569.39,374.95,570.12,374.23,570.53z"/>
<path class="st37" d="M379.9,567.25l-1.86,1.08c-0.72,0.41-1.98,0.36-2.81-0.12l-0.8-0.46c-0.83-0.48-0.92-1.21-0.2-1.62l1.86-1.08
	c0.72-0.41,1.98-0.36,2.81,0.12l0.8,0.46C380.53,566.11,380.62,566.84,379.9,567.25z"/>
<path class="st37" d="M385.58,563.98l-1.86,1.08c-0.72,0.41-1.98,0.36-2.81-0.12l-0.8-0.46c-0.83-0.48-0.92-1.21-0.2-1.62l1.86-1.08
	c0.72-0.41,1.98-0.36,2.81,0.12l0.8,0.46C386.2,562.83,386.29,563.56,385.58,563.98z"/>
<path class="st37" d="M391.25,560.7l-1.86,1.08c-0.72,0.41-1.98,0.36-2.81-0.12l-0.8-0.46c-0.83-0.48-0.92-1.21-0.2-1.62l1.86-1.08
	c0.72-0.41,1.98-0.36,2.81,0.12l0.8,0.46C391.88,559.56,391.97,560.29,391.25,560.7z"/>
<path class="st37" d="M396.92,557.43l-1.86,1.08c-0.72,0.41-1.98,0.36-2.81-0.12l-0.8-0.46c-0.83-0.48-0.92-1.21-0.2-1.62l1.86-1.08
	c0.72-0.41,1.98-0.36,2.81,0.12l0.8,0.46C397.55,556.28,397.64,557.01,396.92,557.43z"/>
<path class="st37" d="M402.6,554.15l-1.86,1.08c-0.72,0.41-1.98,0.36-2.81-0.12l-0.8-0.46c-0.83-0.48-0.92-1.21-0.2-1.62l1.86-1.08
	c0.72-0.41,1.98-0.36,2.81,0.12l0.8,0.46C403.22,553.01,403.32,553.74,402.6,554.15z"/>
<path class="st37" d="M408.27,550.88l-1.86,1.08c-0.72,0.41-1.98,0.36-2.81-0.12l-0.8-0.46c-0.83-0.48-0.92-1.21-0.2-1.62l1.86-1.08
	c0.72-0.41,1.98-0.36,2.81,0.12l0.8,0.46C408.9,549.73,408.99,550.46,408.27,550.88z"/>
<path class="st37" d="M373.82,576.85l-1.86,1.08c-0.72,0.41-1.98,0.36-2.81-0.12l-0.8-0.46c-0.83-0.48-0.92-1.21-0.2-1.62l1.86-1.08
	c0.72-0.41,1.98-0.36,2.81,0.12l0.8,0.46C374.45,575.7,374.54,576.43,373.82,576.85z"/>
<path class="st37" d="M379.5,573.57l-1.86,1.08c-0.72,0.41-1.98,0.36-2.81-0.12l-0.8-0.46c-0.83-0.48-0.92-1.21-0.2-1.62l1.86-1.08
	c0.72-0.41,1.98-0.36,2.81,0.12l0.8,0.46C380.13,572.43,380.22,573.16,379.5,573.57z"/>
<path class="st37" d="M385.17,570.3l-1.86,1.08c-0.72,0.41-1.98,0.36-2.81-0.12l-0.8-0.46c-0.83-0.48-0.92-1.21-0.2-1.62l1.86-1.08
	c0.72-0.41,1.98-0.36,2.81,0.12l0.8,0.46C385.8,569.15,385.89,569.88,385.17,570.3z"/>
<path class="st37" d="M390.85,567.02l-1.86,1.08c-0.72,0.41-1.98,0.36-2.81-0.12l-0.8-0.46c-0.83-0.48-0.92-1.21-0.2-1.62l1.86-1.08
	c0.72-0.41,1.98-0.36,2.81,0.12l0.8,0.46C391.47,565.88,391.56,566.61,390.85,567.02z"/>
<path class="st37" d="M396.52,563.75l-1.86,1.08c-0.72,0.41-1.98,0.36-2.81-0.12l-0.8-0.46c-0.83-0.48-0.92-1.21-0.2-1.62l1.86-1.08
	c0.72-0.41,1.98-0.36,2.81,0.12l0.8,0.46C397.15,562.6,397.24,563.33,396.52,563.75z"/>
<path class="st37" d="M402.19,560.47l-1.86,1.08c-0.72,0.41-1.98,0.36-2.81-0.12l-0.8-0.46c-0.83-0.48-0.92-1.21-0.2-1.62l1.86-1.08
	c0.72-0.41,1.98-0.36,2.81,0.12l0.8,0.46C402.82,559.33,402.91,560.06,402.19,560.47z"/>
<path class="st37" d="M407.87,557.19l-1.86,1.08c-0.72,0.41-1.98,0.36-2.81-0.12l-0.8-0.46c-0.83-0.48-0.92-1.21-0.2-1.62l1.86-1.08
	c0.72-0.41,1.98-0.36,2.81,0.12l0.8,0.46C408.5,556.05,408.59,556.78,407.87,557.19z"/>
<path class="st37" d="M413.54,553.92l-1.86,1.08c-0.72,0.41-1.98,0.36-2.81-0.12l-0.8-0.46c-0.83-0.48-0.92-1.21-0.2-1.62l1.86-1.08
	c0.72-0.41,1.98-0.36,2.81,0.12l0.8,0.46C414.17,552.77,414.26,553.5,413.54,553.92z"/>
</svg>
