<?xml version="1.0" encoding="utf-8"?>
<!-- Generator: Adobe Illustrator 27.0.0, SVG Export Plug-In . SVG Version: 6.00 Build 0)  -->
<svg version="1.1" id="Layer_1" xmlns="http://www.w3.org/2000/svg" xmlns:xlink="http://www.w3.org/1999/xlink" x="0px" y="0px"
	 viewBox="0 0 230.51 230.51" style="enable-background:new 0 0 230.51 230.51;" xml:space="preserve">
<style type="text/css">
	.st0{fill:#537FE7;}
</style>
<g>
	<path class="st0" d="M214.07,3.99h-195c-6.6,0-12,5.4-12,12v195c0,6.6,5.4,12,12,12h195c6.6,0,12-5.4,12-12v-195
		C226.07,9.39,220.67,3.99,214.07,3.99z M175.97,69.72l-25.82,14.91l-12.12-7l0,0l-13.52-7.8l25.82-14.91L175.97,69.72z
		 M127.26,82.03l-9.81,21.62L89.82,87.7L127.26,82.03z M103.38,38.07l11.4,5.37l12.45-4.64l-5.4,7.95l11.4,5.37l-14.74-0.45
		l-5.4,7.95l-3.7-8.24l-14.74-0.45l12.45-4.64L103.38,38.07z M66.72,60.7c7.53-4.35,19.7-4.37,27.17-0.06
		c7.48,4.32,7.43,11.34-0.1,15.69c-7.53,4.35-19.7,4.37-27.17,0.06C59.14,72.07,59.19,65.05,66.72,60.7z M191.31,145.75
		c-0.01,0.79-0.49,1.55-1.47,2.11l-69.62,40.2c-2.17,1.25-5.98,1.1-8.49-0.35l-67.85-39.17c-1.37-0.79-2.07-1.8-2.07-2.77v-19.05
		c0,0.96,0.7,1.98,2.07,2.77l11.95,6.9l55.89,32.27c2.5,1.45,6.32,1.6,8.49,0.35l57.06-32.94l12.56-7.26
		c0.97-0.56,1.46-1.32,1.47-2.11V145.75z M191.31,116.66c-0.01,0.79-0.49,1.55-1.47,2.11l-69.62,40.2c-2.17,1.25-5.98,1.1-8.49-0.35
		l-67.85-39.17c-1.37-0.79-2.07-1.8-2.07-2.77V97.62c0,0.96,0.7,1.98,2.07,2.77l11.95,6.9l55.89,32.27c2.5,1.45,6.32,1.6,8.49,0.35
		l57.06-32.94l12.56-7.26c0.97-0.56,1.46-1.32,1.47-2.11V116.66z M191.31,87.57c-0.01,0.79-0.49,1.55-1.47,2.11l-69.62,40.2
		c-2.17,1.25-5.98,1.1-8.49-0.35L43.89,90.35c-1.37-0.79-2.07-1.8-2.07-2.77V68.53c0,0.96,0.7,1.98,2.07,2.77l11.95,6.9l55.89,32.27
		c2.5,1.45,6.32,1.6,8.49,0.35l57.06-32.94l12.56-7.26c0.97-0.56,1.46-1.32,1.47-2.11V87.57z"/>
	<polygon class="st0" points="138.03,77.63 150.15,84.63 138.03,77.63 	"/>
	<polygon class="st0" points="150.24,69.77 138.03,77.63 150.15,84.63 162.93,77.25 	"/>
</g>
</svg>
