<?xml version="1.0" encoding="utf-8"?>
<!-- Generator: Adobe Illustrator 27.0.0, SVG Export Plug-In . SVG Version: 6.00 Build 0)  -->
<svg version="1.1" id="Layer_1" xmlns="http://www.w3.org/2000/svg" xmlns:xlink="http://www.w3.org/1999/xlink" x="0px" y="0px"
	 viewBox="0 0 230.51 230.51" style="enable-background:new 0 0 230.51 230.51;" xml:space="preserve">
<style type="text/css">
	.st0{fill:#FFFFFF;}
	.st1{fill:#537FE7;}
</style>
<path class="st0" d="M212.76,5.76h-195c-6.6,0-12,5.4-12,12v195c0,6.6,5.4,12,12,12h195c6.6,0,12-5.4,12-12v-195
	C224.76,11.16,219.36,5.76,212.76,5.76z"/>
<g>
	<path class="st1" d="M190,128.47v19.05c0,0.79-0.49,1.55-1.47,2.11l-69.62,40.2c-2.17,1.25-5.98,1.1-8.49-0.35L42.58,150.3
		c-1.37-0.79-2.07-1.8-2.07-2.77v-19.05c0,0.96,0.7,1.98,2.07,2.77l11.95,6.9l55.89,32.27c2.5,1.45,6.32,1.6,8.49,0.35l57.06-32.94
		l12.56-7.26C189.51,130.01,189.99,129.26,190,128.47z"/>
	<path class="st1" d="M190,99.37v19.05c0,0.79-0.49,1.55-1.47,2.11l-69.62,40.2c-2.17,1.25-5.98,1.1-8.49-0.35l-67.85-39.17
		c-1.37-0.79-2.07-1.8-2.07-2.77V99.39c0,0.96,0.7,1.98,2.07,2.77l11.95,6.9l55.89,32.27c2.5,1.45,6.32,1.6,8.49,0.35l57.06-32.94
		l12.56-7.26C189.51,100.92,189.99,100.17,190,99.37z"/>
	<path class="st1" d="M190,70.28v19.05c0,0.79-0.49,1.55-1.47,2.11l-69.62,40.2c-2.17,1.25-5.98,1.1-8.49-0.35L42.58,92.12
		c-1.37-0.79-2.07-1.8-2.07-2.77V70.3c0,0.96,0.7,1.98,2.07,2.77l11.95,6.9l55.89,32.27c2.5,1.45,6.32,1.6,8.49,0.35l57.06-32.94
		l12.56-7.26C189.51,71.83,189.99,71.07,190,70.28z"/>
	<polygon class="st1" points="102.07,39.84 113.47,45.21 125.91,40.58 120.51,48.53 131.91,53.9 117.17,53.45 111.77,61.4 
		108.06,53.17 93.33,52.71 105.77,48.08 	"/>
	<polygon class="st1" points="123.2,71.6 149.03,56.69 174.66,71.49 148.84,86.4 	"/>
	
		<ellipse transform="matrix(1 -6.291624e-03 6.291624e-03 1 -0.4406 0.4981)" class="st1" cx="78.94" cy="70.28" rx="19.21" ry="11.09"/>
	<polygon class="st1" points="125.95,83.8 88.51,89.46 116.14,105.42 	"/>
</g>
<polyline class="st0" points="136.72,79.4 148.93,71.54 161.63,79.01 148.84,86.4 "/>
</svg>
